<?xml version="1.0" encoding="utf-8"?>
<!-- Generator: Adobe Illustrator 24.0.1, SVG Export Plug-In . SVG Version: 6.00 Build 0)  -->
<svg version="1.1" id="Layer_1" xmlns="http://www.w3.org/2000/svg" xmlns:xlink="http://www.w3.org/1999/xlink" x="0px" y="0px"
	 viewBox="0 0 114 114" style="enable-background:new 0 0 114 114;" xml:space="preserve">
<style type="text/css">
	.st0{fill:#E8B21F;}
	.st1{fill:#FFFFFF;}
</style>
<circle class="st0" cx="57" cy="57" r="57"/>
<g>
	<path class="st1" d="M79.9,42.4c-0.7-7.8-7.4-10.4-15.9-11.1V20.6h-6.5V31c-1.7,0-3.5,0-5.2,0.1V20.6h-6.5l0,10.8
		c-1.4,0-2.8,0.1-4.2,0.1v0l-9,0v7c0,0,4.8-0.1,4.8,0c2.7,0,3.5,1.5,3.8,2.9v12.3c0.2,0,0.4,0,0.7,0H41l0,17.2
		c-0.1,0.8-0.6,2.2-2.5,2.2c0.1,0.1-4.8,0-4.8,0l-1.3,7.8H41c1.6,0,3.1,0,4.7,0l0,10.9h6.5V80.8c1.8,0,3.5,0.1,5.2,0.1l0,10.7H64
		V80.7c11-0.6,18.7-3.4,19.7-13.8c0.8-8.3-3.1-12.1-9.4-13.6C78.1,51.5,80.4,48.1,79.9,42.4L79.9,42.4z M70.7,65.7
		c0,8.1-13.9,7.2-18.4,7.2V58.5C56.8,58.5,70.7,57.2,70.7,65.7z M67.7,45.3c0,7.4-11.6,6.5-15.3,6.5V38.8
		C56.1,38.8,67.7,37.6,67.7,45.3z"/>
	<path class="st1" d="M41,53.2h1v0.7h-1V53.2z"/>
</g>
</svg>
