<?xml version="1.0" standalone="no"?><svg xmlns="http://www.w3.org/2000/svg" width="111.6" height="111.6" viewBox="0 0 111.6 111.6"><defs><style>.a{fill:#f89b2b;}.b{fill:#fff;}</style></defs><ellipse class="a" cx="55.8" cy="55.8" rx="55.8" ry="55.8"/><path class="b" d="M26.854,70.3a1.9,1.9,0,0,1-.625-.176c-.792-.176-1.643-.4-2.465-.616s-1.673-.44-2.465-.616c-.258-.086-.393-.173-.439-.283a.535.535,0,0,1,.087-.42l.015-.065c.688-2.921,1.4-5.941,2.274-8.737a1.543,1.543,0,0,1,.026-.257c.031-.193.052-.32-.2-.447-1.294-.324-2.76-.692-4.4-1.057-.176.792-.4,1.6-.616,2.376s-.441,1.585-.616,2.376-.4,1.6-.616,2.376-.441,1.585-.616,2.376c-.021.041-.039.08-.056.116-.089.19-.143.3-.324.3a1.078,1.078,0,0,1-.324-.069c-1.748-.524-3.525-.88-5.244-1.225l-.038-.008c-.258-.086-.393-.173-.439-.283a.535.535,0,0,1,.087-.42l.015-.065c.688-2.921,1.4-5.94,2.274-8.737a.632.632,0,0,1,.066-.231,1.156,1.156,0,0,0,.11-.472C8.824,55.129,4.469,53.991,0,52.873c.175-.349.308-.66.437-.961s.266-.621.444-.975c.692-1.558,1.407-3.168,1.936-4.577.176-.528.353-.528.879-.528a30.16,30.16,0,0,0,3.873.879,2.905,2.905,0,0,0,.7.091,1.853,1.853,0,0,0,1.938-1.675c2.245-8.8,4.566-17.906,6.69-27.108a3.04,3.04,0,0,0-2.113-3.52c-1.276-.426-2.527-.731-3.736-1.026q-.429-.1-.841-.207a.428.428,0,0,1-.385-.149.387.387,0,0,1,.033-.379c.267-.978.538-2.018.8-3.024.217-.832.439-1.683.659-2.5.836.218,1.684.411,2.5.6.951.216,1.935.44,2.9.7s1.952.488,2.9.7,1.936.44,2.9.7a1.091,1.091,0,0,0,.336.066c.29,0,.419-.218.545-.593C23.763,7.9,24.12,6.429,24.465,5l0-.01c.347-1.43.7-2.906,1.056-4.4.125-.376.255-.593.545-.593A1.09,1.09,0,0,1,26.4.066c1.753.525,3.308.872,5.1,1.231.258.087.393.175.439.285A.536.536,0,0,1,31.86,2c-.351,1.406-.707,2.873-1.051,4.293-.349,1.439-.708,2.92-1.061,4.332a1.338,1.338,0,0,1-.176.7c.7.175,1.458.353,2.19.525s1.5.354,2.209.53c.119,0,.238-.159.354-.314a2.086,2.086,0,0,1,.175-.214c.465-2.018,1-4.225,1.76-6.689q.254-1.016.507-2.03l.02-.082c0-.272.1-.422.283-.422a.567.567,0,0,1,.246.069c1.005.3,2,.543,3.049.8.776.189,1.577.383,2.407.609a.229.229,0,0,1,.176.088.229.229,0,0,0,.176.088c-.546,2.369-1.1,4.57-1.584,6.513a14.724,14.724,0,0,1-.7,2.641.638.638,0,0,0,0,.572.957.957,0,0,0,.528.309l2.9,1.32,2.9,1.32a14.879,14.879,0,0,1,4.577,4.225,10.562,10.562,0,0,1,1.055,8.273,11.031,11.031,0,0,1-2.639,5.1,10.654,10.654,0,0,1-3.873,2.289.633.633,0,0,0-.231.066,1.156,1.156,0,0,1-.472.11c.351.264.709.487,1.055.7s.7.441,1.057.7a11.117,11.117,0,0,1,4.225,5.985,13.691,13.691,0,0,1-.352,5.984,17.15,17.15,0,0,1-3.168,6.514,10.946,10.946,0,0,1-7.218,3.872,26.7,26.7,0,0,1-3.809.261,46.8,46.8,0,0,1-6.929-.613,1.16,1.16,0,0,0-.363-.066c-.328,0-.561.2-.692.593-.351,1.4-.708,2.877-1.054,4.3l0,.013,0,.009c-.345,1.425-.7,2.9-1.054,4.3l-.022.088C27.16,70.093,27.109,70.3,26.854,70.3Zm-3.4-32.983c-.2,0-.254.155-.353.463l0,.01-.04.122c-.176.877-.4,1.724-.614,2.543s-.442,1.678-.618,2.561c-.4,1.409-.743,2.795-1.1,4.261-.263,1.072-.533,2.178-.834,3.308a.622.622,0,0,1,.352.176c.446.111.9.227,1.35.344a39.64,39.64,0,0,0,7.451,1.416c.8.067,1.459.1,2.06.1a11.163,11.163,0,0,0,3.926-.627,5.292,5.292,0,0,0,3.37-3.42,5.456,5.456,0,0,0-.553-4.852,10.8,10.8,0,0,0-3.683-3.161l-.013-.008c-3.071-1.706-6.623-2.416-10.059-3.1l-.327-.065A1.029,1.029,0,0,0,23.456,37.316ZM28,19.011c-.291,0-.42.218-.545.594-1.053,4.425-1.895,7.689-2.815,10.914a.454.454,0,0,0-.054.351c.042.126.163.231.405.353.352.088.665.178.968.264s.617.177.968.265c.725.1,1.431.208,2.114.315a34.653,34.653,0,0,0,5.631.564,11.5,11.5,0,0,0,1.936-.352,5.1,5.1,0,0,0,3.594-2.944,5.022,5.022,0,0,0-.25-4.626,8.254,8.254,0,0,0-4.048-3.344,40.255,40.255,0,0,0-6.022-1.885c-.5-.129-1.024-.263-1.547-.4A1.085,1.085,0,0,0,28,19.011Z" transform="translate(27.988 20.177)"/></svg>