<?xml version="1.0" encoding="UTF-8"?>
<svg width="2000px" height="2000px" viewBox="0 0 2000 2000" version="1.1" xmlns="http://www.w3.org/2000/svg" xmlns:xlink="http://www.w3.org/1999/xlink">
    <title>cro</title>
    <g id="页面-1" stroke="none" stroke-width="1" fill="none" fill-rule="evenodd">
        <g id="cro" fill-rule="nonzero">
            <circle id="shape" fill="#20376D" cx="1000" cy="1000" r="1000"></circle>
            <g id="group" transform="translate(363.000000, 264.000000)" fill="#FFFFFF">
                <path d="M637,0 L0,368 L0,1104 L637,1472 L1274,1104 L1274,368 L637,0 Z M1219.13235,1071.88364 L638.338234,1407.76728 L57.5441173,1071.88364 L57.5441173,400.116365 L638.338234,64.2327276 L1219.13235,400.116365 L1219.13235,1071.88364 L1219.13235,1071.88364 Z" id="形状"></path>
                <path d="M886.796265,319 L386.436333,319 L327.570459,574.650697 L947,574.650697 L886.796265,319 Z M474.735144,925.333851 L474.735144,755.346216 L326.232598,661.652243 L159,786.131378 L387.774194,1185 L478.748727,1185 L587.115451,1083.27512 L587.115451,1033.75116 L474.735144,925.333851 Z" id="形状"></path>
                <polygon id="路径" points="800 612 476 612 529.553719 755.295155 513.487603 916 636.661157 916 762.512397 914.660793 746.446281 755.295155"></polygon>
                <polygon id="路径" points="948.680251 660 801.438872 754.96931 801.438872 924.843991 689 1033.18926 689 1082.68031 797.423198 1183 888.445141 1183 1116 785.734016"></polygon>
            </g>
        </g>
    </g>
</svg>