<?xml version="1.0" encoding="utf-8"?>
<!-- Generator: Adobe Illustrator 24.0.1, SVG Export Plug-In . SVG Version: 6.00 Build 0)  -->
<svg version="1.1" id="Layer_1" xmlns="http://www.w3.org/2000/svg" xmlns:xlink="http://www.w3.org/1999/xlink" x="0px" y="0px"
	 viewBox="0 0 114 114" style="enable-background:new 0 0 114 114;" xml:space="preserve">
<style type="text/css">
	.st0{fill:#335D9D;}
	.st1{fill:#FFFFFF;}
</style>
<circle class="st0" cx="57" cy="57" r="57"/>
<path class="st1" d="M70.7,86.1C94.2,65.8,80.4,28.8,32,27.7c0.5,32.7-4,57.9,29,57.9c10.2-15.6,2.7-31.1-14-46.4
	C63.5,45.7,77.5,65.5,70.7,86.1z"/>
<circle class="st0" cx="55" cy="56.5" r="37.3"/>
<path class="st1" d="M54.5,71.3l3.7-13.8l8.7-3.2l2.2-8.1l-0.1-0.2l-8.5,3.1L66.5,26H49.1l-8,30.2l-6.7,2.5L32.1,67l6.7-2.4
	l-4.7,17.8h46.4l3-11.1H54.5"/>
</svg>
