<svg id="svg" version="1.1" xmlns="http://www.w3.org/2000/svg" xmlns:xlink="http://www.w3.org/1999/xlink" width="400" height="300" viewBox="0, 0, 400,300"><g id="svgg"><path id="path0" d="M0.000 150.038 L 0.000 200.150 200.000 200.150 L 400.000 200.150 400.000 150.038 L 400.000 99.925 200.000 99.925 L 0.000 99.925 0.000 150.038 M214.656 110.086 C 215.765 111.116,216.492 112.567,216.966 114.700 C 217.551 117.332,218.033 117.895,221.011 119.417 C 225.220 121.567,225.358 122.757,221.580 124.305 C 219.344 125.221,218.018 126.316,216.579 128.432 C 216.074 129.175,214.804 130.946,213.757 132.368 C 211.665 135.208,211.380 136.313,212.484 137.312 C 212.830 137.626,213.738 138.732,214.500 139.770 C 215.262 140.808,216.498 142.051,217.245 142.532 C 221.318 145.150,222.342 147.237,222.689 153.622 C 223.097 161.138,222.759 163.257,220.733 165.884 C 215.481 172.698,215.281 174.563,219.507 177.349 C 221.829 178.879,224.853 177.531,225.840 174.526 C 226.116 173.683,226.860 171.970,227.494 170.719 C 229.453 166.850,229.645 161.012,228.216 148.687 C 227.615 143.495,227.673 143.666,225.806 141.635 C 223.439 139.060,223.241 137.234,225.134 135.408 C 226.974 133.634,227.601 133.615,229.210 135.285 C 230.240 136.353,230.931 136.800,231.811 136.964 C 233.273 137.238,233.639 137.524,234.382 138.980 C 235.158 140.502,235.774 140.789,237.550 140.457 C 240.445 139.916,240.618 140.364,240.959 149.277 C 241.105 153.079,241.448 157.944,241.721 160.090 C 242.769 168.311,241.450 176.007,238.223 180.501 C 236.290 183.193,231.932 184.835,228.721 184.082 C 226.119 183.471,221.805 183.468,221.197 184.076 C 220.955 184.318,220.465 185.097,220.109 185.806 C 218.449 189.110,214.476 189.286,211.553 186.186 C 207.498 181.885,205.474 182.235,205.612 187.211 C 205.792 193.689,202.944 192.967,202.267 186.362 C 201.514 179.025,198.515 178.914,197.776 186.197 C 197.102 192.830,194.449 193.806,194.449 187.421 C 194.449 182.953,193.189 182.541,189.473 185.793 C 185.433 189.329,181.943 189.309,180.119 185.739 C 179.748 185.011,179.262 184.235,179.041 184.013 C 178.528 183.501,173.376 183.445,172.100 183.938 C 169.449 184.962,164.745 183.624,162.478 181.201 C 158.850 177.322,157.187 169.090,158.275 160.390 C 158.543 158.245,158.884 153.191,159.032 149.159 C 159.362 140.203,159.330 140.285,162.509 140.285 C 164.522 140.285,164.567 140.267,165.221 139.235 C 166.436 137.317,167.041 136.834,168.229 136.834 C 169.159 136.834,169.537 136.617,170.578 135.484 C 172.265 133.646,173.061 133.665,174.987 135.591 C 177.101 137.706,176.940 138.973,174.222 141.619 C 172.545 143.251,172.387 143.726,171.797 148.915 C 170.387 161.323,170.577 166.831,172.547 170.750 C 173.209 172.068,173.966 173.787,174.229 174.570 C 175.814 179.297,181.778 178.751,183.712 173.702 C 184.055 172.808,182.385 169.809,179.485 166.115 C 177.515 163.604,177.373 162.970,177.358 156.614 C 177.337 148.086,177.951 146.275,181.872 143.290 C 185.578 140.469,189.546 135.900,189.161 134.897 C 188.599 133.434,186.822 133.532,184.629 135.147 C 180.308 138.327,179.027 138.012,177.957 133.506 C 177.206 130.344,177.410 129.446,179.317 127.509 C 181.243 125.554,181.108 124.987,178.395 123.631 C 175.328 122.098,175.454 121.143,178.958 119.374 C 181.723 117.976,183.537 116.106,183.937 114.238 C 184.373 112.206,185.547 110.246,186.680 109.660 C 188.457 108.741,188.906 110.256,187.937 113.896 L 187.426 115.812 188.130 116.561 C 188.517 116.973,189.456 117.517,190.217 117.769 C 191.647 118.244,196.372 121.744,197.473 123.142 C 198.863 124.910,199.692 124.805,200.753 122.725 C 201.191 121.868,201.722 121.446,203.200 120.782 C 204.239 120.316,205.767 119.503,206.595 118.976 C 207.424 118.449,208.600 117.855,209.209 117.656 C 209.817 117.458,210.675 117.012,211.114 116.667 L 211.913 116.039 211.702 112.815 C 211.432 108.681,212.289 107.889,214.656 110.086 M205.282 142.304 C 205.480 142.679,205.738 143.053,205.857 143.136 C 206.494 143.579,207.690 146.690,207.957 148.601 C 208.561 152.912,210.392 155.139,213.333 155.139 C 215.603 155.139,214.014 148.743,210.824 145.035 C 208.892 142.790,204.362 140.558,205.282 142.304 M191.562 142.974 C 186.996 145.966,183.459 155.139,186.872 155.139 C 189.575 155.139,191.541 152.742,192.028 148.851 C 192.275 146.886,192.583 145.934,193.530 144.219 L 194.721 142.061 193.910 142.014 C 193.432 141.986,192.467 142.381,191.562 142.974 M195.119 166.391 C 194.006 166.875,193.703 167.422,193.967 168.473 C 194.337 169.950,196.596 169.617,197.385 167.970 C 198.180 166.312,197.074 165.541,195.119 166.391 " stroke="none" fill="#fae206" fill-rule="evenodd"></path><path id="path1" d="M212.078 109.254 C 211.416 109.636,211.386 111.430,212.003 113.728 C 212.919 117.140,212.562 118.094,210.039 118.984 C 209.306 119.243,207.894 119.974,206.903 120.608 C 205.912 121.243,204.696 121.946,204.201 122.171 C 203.575 122.456,203.044 123.110,202.458 124.319 C 200.476 128.409,194.349 127.572,193.076 123.038 C 192.486 120.936,191.600 120.007,189.347 119.132 C 185.856 117.775,185.351 117.154,186.508 115.637 C 187.995 113.688,188.718 110.028,187.695 109.635 C 186.251 109.081,184.546 111.988,184.546 115.004 L 184.546 116.991 182.296 119.029 C 179.901 121.198,179.673 121.702,180.678 122.609 C 181.027 122.924,181.783 124.116,182.359 125.260 C 183.747 128.013,186.458 131.888,188.059 133.404 C 188.767 134.076,189.347 134.903,189.347 135.243 C 189.347 136.775,192.116 136.836,196.942 135.409 C 200.401 134.387,204.033 134.687,207.021 136.242 C 208.678 137.105,208.955 137.165,209.753 136.834 C 211.138 136.260,216.815 128.615,218.134 125.546 C 218.497 124.701,219.248 123.571,219.802 123.034 C 221.028 121.845,220.952 121.604,218.912 120.198 C 216.978 118.867,216.897 118.698,216.803 115.806 C 216.669 111.703,214.072 108.102,212.078 109.254 M206.152 129.025 C 206.152 129.377,205.793 129.802,205.266 130.075 C 203.602 130.936,203.193 130.421,204.545 129.168 C 205.504 128.279,206.152 128.221,206.152 129.025 M202.727 131.583 C 201.867 132.510,200.450 132.617,200.450 131.755 C 200.450 131.136,200.933 130.923,202.461 130.868 L 203.422 130.833 202.727 131.583 M193.483 140.460 C 191.826 141.305,190.335 142.287,190.032 142.734 C 189.738 143.166,188.769 144.310,187.879 145.275 L 186.261 147.031 185.290 151.910 C 184.756 154.594,184.148 157.398,183.940 158.142 C 183.598 159.360,183.622 159.616,184.175 160.700 C 184.513 161.363,184.888 162.577,185.008 163.398 C 185.128 164.219,185.513 165.285,185.862 165.767 C 186.211 166.249,186.834 167.330,187.247 168.168 C 188.058 169.817,189.578 170.831,191.823 171.223 C 192.442 171.331,192.948 171.581,192.948 171.779 C 192.948 173.196,197.107 175.244,199.984 175.244 C 202.523 175.244,206.885 173.654,208.552 172.121 C 208.965 171.742,209.954 170.992,210.752 170.456 C 211.771 169.770,212.370 169.085,212.772 168.147 C 213.087 167.414,213.677 166.377,214.085 165.843 C 214.492 165.308,214.917 164.268,215.028 163.531 C 215.139 162.794,215.506 161.533,215.844 160.729 C 216.383 159.449,216.414 159.114,216.096 158.029 C 215.897 157.347,215.407 155.006,215.008 152.826 C 214.223 148.539,214.052 148.125,211.920 145.326 C 207.119 139.023,199.987 137.141,193.483 140.460 M204.964 140.383 C 209.048 141.975,213.221 146.801,214.222 151.088 C 215.543 156.749,213.454 157.785,208.545 153.905 C 201.218 148.113,200.328 147.996,194.376 152.037 C 186.784 157.192,185.197 157.434,185.538 153.382 C 186.008 147.794,188.909 143.540,193.986 140.992 L 196.999 139.480 200.150 139.607 C 202.426 139.700,203.763 139.915,204.964 140.383 M181.815 143.365 C 177.864 146.307,177.224 148.337,177.390 157.389 C 177.508 163.861,177.677 164.459,179.777 165.848 C 180.579 166.379,181.281 167.221,181.840 168.323 C 183.004 170.616,186.314 174.649,188.064 175.906 C 189.088 176.642,189.806 177.508,190.522 178.870 C 192.280 182.218,192.655 182.399,194.896 180.977 C 197.036 179.621,203.184 179.641,205.342 181.012 C 207.229 182.211,207.757 181.964,209.291 179.165 C 210.128 177.639,210.900 176.694,211.924 175.942 C 213.683 174.651,217.003 170.600,218.153 168.342 C 218.719 167.230,219.446 166.374,220.381 165.718 C 222.621 164.147,223.106 161.631,222.689 153.763 C 222.346 147.285,221.520 145.499,217.608 142.779 C 216.064 141.705,215.919 141.773,216.457 143.314 C 216.682 143.959,216.957 144.977,217.068 145.577 C 217.178 146.177,217.671 147.257,218.162 147.977 C 219.918 150.552,220.730 155.322,219.841 157.839 C 219.578 158.582,219.362 160.075,219.359 161.157 C 219.356 162.814,219.216 163.343,218.472 164.516 C 217.986 165.282,217.504 166.490,217.400 167.201 C 217.184 168.688,216.710 169.508,215.190 171.024 C 214.592 171.620,213.737 172.598,213.288 173.197 C 212.761 173.902,211.967 174.474,211.038 174.819 C 210.248 175.111,208.902 176.002,208.045 176.798 C 206.541 178.195,206.425 178.245,204.677 178.245 C 203.426 178.245,202.449 178.448,201.513 178.902 L 200.160 179.560 198.574 178.902 C 197.565 178.484,196.355 178.245,195.250 178.245 C 193.589 178.245,193.444 178.181,191.955 176.798 C 191.098 176.002,189.758 175.114,188.976 174.824 C 188.140 174.514,187.274 173.917,186.875 173.376 C 186.502 172.869,185.635 171.881,184.949 171.180 C 183.302 169.498,182.828 168.722,182.621 167.365 C 182.526 166.744,182.042 165.518,181.547 164.640 C 180.838 163.384,180.645 162.678,180.645 161.337 C 180.645 160.398,180.419 158.817,180.142 157.822 C 179.175 154.345,180.334 149.469,182.749 146.849 C 183.808 145.700,184.644 141.935,183.840 141.935 C 183.782 141.935,182.870 142.579,181.815 143.365 M198.483 165.108 C 200.020 167.302,197.678 170.776,194.355 171.232 C 192.772 171.449,192.344 170.907,192.353 168.698 C 192.364 165.849,197.071 163.093,198.483 165.108 M0.000 250.113 L 0.000 300.075 200.000 300.075 L 400.000 300.075 400.000 250.113 L 400.000 200.150 200.000 200.150 L 0.000 200.150 0.000 250.113 " stroke="none" fill="#047b33" fill-rule="evenodd"></path><path id="path2" d="M0.000 49.962 L 0.000 99.925 200.000 99.925 L 400.000 99.925 400.000 49.962 L 400.000 0.000 200.000 0.000 L 0.000 0.000 0.000 49.962 M187.622 109.551 C 188.689 110.173,188.062 113.600,186.508 115.637 C 185.351 117.154,185.856 117.775,189.347 119.132 C 191.600 120.007,192.486 120.936,193.076 123.038 C 194.349 127.572,200.476 128.409,202.458 124.319 C 203.044 123.110,203.575 122.456,204.201 122.171 C 204.696 121.946,205.912 121.243,206.903 120.608 C 207.894 119.974,209.306 119.243,210.039 118.984 C 211.974 118.302,212.458 117.758,212.423 116.308 C 212.378 114.439,211.922 113.194,211.883 114.832 C 211.849 116.253,211.107 117.037,209.209 117.656 C 208.600 117.855,207.424 118.449,206.595 118.976 C 205.767 119.503,204.239 120.316,203.200 120.782 C 201.722 121.446,201.191 121.868,200.753 122.725 C 199.692 124.805,198.863 124.910,197.473 123.142 C 196.372 121.744,191.647 118.244,190.217 117.769 C 189.456 117.517,188.517 116.973,188.130 116.561 L 187.426 115.812 187.937 113.896 C 188.726 110.934,188.531 109.204,187.412 109.236 C 187.239 109.241,187.333 109.383,187.622 109.551 M185.153 111.215 C 184.669 111.979,184.125 113.317,183.944 114.190 C 183.547 116.101,181.762 117.957,178.958 119.374 C 175.454 121.143,175.328 122.098,178.395 123.631 C 181.108 124.987,181.243 125.554,179.317 127.509 C 177.410 129.446,177.206 130.344,177.957 133.506 C 179.027 138.012,180.308 138.327,184.629 135.147 C 186.437 133.815,187.358 133.580,188.542 134.148 C 188.911 134.325,188.663 133.964,187.973 133.323 C 186.460 131.914,183.756 128.030,182.359 125.260 C 181.783 124.116,181.027 122.924,180.678 122.609 C 179.675 121.704,179.901 121.198,182.263 119.058 L 184.482 117.049 184.589 114.692 C 184.678 112.726,184.834 112.126,185.526 111.081 C 185.982 110.391,186.283 109.827,186.194 109.827 C 186.106 109.827,185.637 110.452,185.153 111.215 M216.846 116.382 C 216.580 118.047,217.055 118.920,218.933 120.213 C 220.924 121.584,221.023 121.859,219.906 122.921 C 218.993 123.788,218.403 124.736,217.828 126.255 L 217.515 127.082 218.513 126.117 C 219.062 125.587,220.442 124.771,221.580 124.305 C 225.321 122.772,225.212 121.552,221.147 119.491 C 218.173 117.983,217.939 117.782,217.427 116.293 L 217.041 115.168 216.846 116.382 M204.545 129.168 C 203.193 130.421,203.602 130.936,205.266 130.075 C 205.793 129.802,206.152 129.377,206.152 129.025 C 206.152 128.221,205.504 128.279,204.545 129.168 M200.975 131.040 C 200.686 131.115,200.450 131.437,200.450 131.755 C 200.450 132.617,201.867 132.510,202.727 131.583 L 203.422 130.833 202.461 130.868 C 201.933 130.887,201.264 130.964,200.975 131.040 M226.857 134.169 C 223.438 135.525,223.007 138.590,225.806 141.635 C 227.673 143.666,227.615 143.495,228.216 148.687 C 229.645 161.012,229.453 166.850,227.494 170.719 C 226.860 171.970,226.116 173.683,225.840 174.526 C 224.853 177.531,221.829 178.879,219.507 177.349 C 216.621 175.446,215.749 173.219,217.107 171.217 C 217.521 170.607,218.119 169.600,218.436 168.980 C 218.752 168.359,219.230 167.670,219.497 167.448 C 219.764 167.227,220.280 166.628,220.642 166.118 L 221.302 165.191 220.253 165.842 C 219.606 166.244,218.799 167.220,218.144 168.393 C 216.701 170.977,213.656 174.670,211.911 175.951 C 210.901 176.693,210.124 177.645,209.291 179.165 C 207.757 181.964,207.229 182.211,205.342 181.012 C 203.184 179.641,197.036 179.621,194.896 180.977 C 192.655 182.399,192.280 182.218,190.522 178.870 C 189.809 177.513,189.088 176.641,188.076 175.915 C 186.348 174.673,183.313 171.002,181.856 168.393 C 181.198 167.215,180.396 166.246,179.745 165.844 L 178.695 165.195 179.850 166.611 C 180.949 167.958,182.651 170.572,183.542 172.282 C 184.040 173.236,183.838 173.850,182.482 175.505 C 179.510 179.134,175.611 178.693,174.229 174.570 C 173.966 173.787,173.209 172.068,172.547 170.750 C 170.577 166.831,170.387 161.323,171.797 148.915 C 172.387 143.726,172.545 143.251,174.222 141.619 C 176.940 138.973,177.101 137.706,174.987 135.591 C 173.061 133.665,172.265 133.646,170.578 135.484 C 169.537 136.617,169.159 136.834,168.229 136.834 C 167.041 136.834,166.436 137.317,165.221 139.235 C 164.567 140.267,164.522 140.285,162.509 140.285 C 159.330 140.285,159.362 140.203,159.032 149.159 C 158.884 153.191,158.543 158.245,158.275 160.390 C 157.187 169.090,158.850 177.322,162.478 181.201 C 164.745 183.624,169.449 184.962,172.100 183.938 C 173.376 183.445,178.528 183.501,179.041 184.013 C 179.262 184.235,179.748 185.011,180.119 185.739 C 181.943 189.309,185.433 189.329,189.473 185.793 C 193.189 182.541,194.449 182.953,194.449 187.421 C 194.449 193.806,197.102 192.830,197.776 186.197 C 198.515 178.914,201.514 179.025,202.267 186.362 C 202.944 192.967,205.792 193.689,205.612 187.211 C 205.474 182.235,207.498 181.885,211.553 186.186 C 214.476 189.286,218.449 189.110,220.109 185.806 C 220.465 185.097,220.955 184.318,221.197 184.076 C 221.805 183.468,226.119 183.471,228.721 184.082 C 231.932 184.835,236.290 183.193,238.223 180.501 C 241.450 176.007,242.769 168.311,241.721 160.090 C 241.448 157.944,241.105 153.079,240.959 149.277 C 240.618 140.364,240.445 139.916,237.550 140.457 C 235.774 140.789,235.158 140.502,234.382 138.980 C 233.639 137.524,233.273 137.238,231.811 136.964 C 230.932 136.800,230.240 136.354,229.212 135.287 C 228.442 134.487,227.765 133.842,227.709 133.852 C 227.653 133.863,227.269 134.005,226.857 134.169 M193.942 141.017 C 190.436 142.773,185.432 148.323,186.444 149.335 C 186.517 149.408,186.722 149.054,186.898 148.548 C 187.815 145.919,192.202 141.856,193.967 142.002 L 194.720 142.064 193.529 144.221 C 192.583 145.934,192.275 146.886,192.028 148.851 C 191.858 150.212,191.535 151.677,191.312 152.107 C 190.200 154.243,186.881 155.854,185.806 154.779 C 185.526 154.499,185.446 154.530,185.446 154.922 C 185.446 157.219,187.924 156.418,194.376 152.037 C 200.270 148.035,201.523 148.193,208.402 153.802 C 211.879 156.638,213.958 156.982,214.543 154.818 C 214.812 153.825,214.805 153.812,214.351 154.464 C 213.797 155.259,213.141 155.309,211.618 154.673 C 209.233 153.677,208.497 152.455,207.957 148.601 C 207.690 146.690,206.494 143.579,205.857 143.136 C 205.738 143.053,205.480 142.679,205.282 142.304 C 204.500 140.819,207.910 142.261,210.352 144.447 L 211.402 145.386 210.502 144.371 C 206.124 139.427,199.712 138.129,193.942 141.017 M212.891 148.338 C 213.393 149.360,213.845 150.104,213.896 149.991 C 214.007 149.741,212.563 146.840,212.221 146.629 C 212.088 146.546,212.389 147.315,212.891 148.338 " stroke="none" fill="#d32c1b" fill-rule="evenodd"></path><path id="path3" d="M197.149 135.372 C 194.507 136.322,190.331 136.703,189.618 136.057 C 189.262 135.735,189.047 135.676,189.047 135.901 C 189.047 136.099,187.899 137.472,186.497 138.952 L 183.946 141.643 183.946 143.597 C 183.946 145.457,183.889 145.611,182.749 146.849 C 180.334 149.469,179.175 154.345,180.142 157.822 C 180.419 158.817,180.645 160.398,180.645 161.337 C 180.645 162.678,180.838 163.384,181.547 164.640 C 182.042 165.518,182.526 166.744,182.621 167.365 C 182.828 168.722,183.302 169.498,184.949 171.180 C 185.635 171.881,186.502 172.869,186.875 173.376 C 187.274 173.917,188.140 174.514,188.976 174.824 C 189.758 175.114,191.098 176.002,191.955 176.798 C 193.444 178.181,193.589 178.245,195.250 178.245 C 196.355 178.245,197.565 178.484,198.574 178.902 L 200.160 179.560 201.513 178.902 C 202.449 178.448,203.426 178.245,204.677 178.245 C 206.425 178.245,206.541 178.195,208.045 176.798 C 208.902 176.002,210.248 175.111,211.038 174.819 C 211.967 174.474,212.761 173.902,213.288 173.197 C 213.737 172.598,214.592 171.620,215.190 171.024 C 216.710 169.508,217.184 168.688,217.400 167.201 C 217.504 166.490,217.986 165.282,218.472 164.516 C 219.216 163.343,219.356 162.814,219.359 161.157 C 219.362 160.075,219.578 158.582,219.841 157.839 C 220.702 155.403,219.902 150.402,218.305 148.238 C 217.882 147.664,217.389 146.653,217.209 145.991 C 216.306 142.658,215.859 141.629,214.532 139.823 C 213.739 138.744,212.812 137.609,212.472 137.301 C 212.113 136.977,211.853 136.369,211.853 135.856 L 211.853 134.970 211.022 135.860 C 209.724 137.249,209.080 137.314,207.053 136.259 C 204.107 134.725,199.973 134.355,197.149 135.372 M204.385 139.640 C 207.111 140.481,209.741 142.465,211.920 145.326 C 214.052 148.125,214.223 148.539,215.008 152.826 C 215.407 155.006,215.897 157.347,216.096 158.029 C 216.414 159.114,216.383 159.449,215.844 160.729 C 215.506 161.533,215.139 162.794,215.028 163.531 C 214.917 164.268,214.492 165.308,214.085 165.843 C 213.677 166.377,213.087 167.414,212.772 168.147 C 212.370 169.085,211.771 169.770,210.752 170.456 C 209.954 170.992,208.965 171.742,208.552 172.121 C 206.885 173.654,202.523 175.244,199.984 175.244 C 197.107 175.244,192.948 173.196,192.948 171.779 C 192.948 171.581,192.442 171.331,191.823 171.223 C 189.578 170.831,188.058 169.817,187.247 168.168 C 186.834 167.330,186.211 166.249,185.862 165.767 C 185.513 165.285,185.128 164.219,185.008 163.398 C 184.888 162.577,184.513 161.363,184.175 160.700 C 183.622 159.616,183.598 159.360,183.940 158.142 C 184.148 157.398,184.756 154.594,185.290 151.910 L 186.261 147.031 187.879 145.275 C 188.769 144.310,189.738 143.166,190.032 142.734 C 192.134 139.643,199.352 138.087,204.385 139.640 M194.749 165.276 C 192.490 166.392,191.759 168.255,192.656 170.613 C 193.296 172.296,197.099 170.966,198.275 168.647 C 200.032 165.180,198.297 163.522,194.749 165.276 M197.452 166.547 C 198.136 167.824,196.203 169.854,194.745 169.391 C 193.386 168.960,193.626 167.040,195.119 166.391 C 196.477 165.801,197.074 165.841,197.452 166.547 " stroke="none" fill="#04a4db" fill-rule="evenodd"></path></g></svg>