<svg id="svg" version="1.1" xmlns="http://www.w3.org/2000/svg" xmlns:xlink="http://www.w3.org/1999/xlink" width="400" height="266.64" viewBox="0, 0, 400,266.64"><g id="svgg"><path id="path0" d="M226.764 0.458 C 226.839 0.710,226.942 24.392,226.992 53.083 C 227.065 94.751,227.126 105.324,227.295 105.619 C 227.712 106.349,225.451 106.329,314.388 106.374 L 400.000 106.417 400.000 53.208 L 400.000 0.000 313.314 0.000 L 226.628 0.000 226.764 0.458 M202.883 117.348 C 201.380 117.904,201.668 124.876,203.212 125.310 C 203.811 125.478,203.749 125.528,204.917 123.929 C 206.588 121.639,207.861 122.308,207.907 125.500 C 207.931 127.230,208.116 127.653,208.725 127.375 C 209.647 126.955,209.750 126.540,209.750 123.256 L 209.750 120.250 210.465 119.179 C 211.717 117.304,211.481 117.180,206.732 117.210 C 204.786 117.223,203.054 117.284,202.883 117.348 M200.092 132.884 C 198.869 134.085,198.658 134.378,198.499 135.093 C 198.276 136.092,197.924 136.667,197.536 136.667 C 197.377 136.667,197.153 136.817,197.039 137.000 C 196.562 137.763,195.580 137.254,194.515 135.693 C 193.679 134.469,191.683 132.552,191.086 132.403 C 189.644 132.041,189.277 132.900,189.371 136.417 C 189.481 140.557,190.344 141.773,193.460 142.175 C 195.834 142.482,196.683 142.152,197.087 140.763 C 197.231 140.267,197.458 139.771,197.591 139.660 C 197.724 139.550,197.833 139.293,197.833 139.089 C 197.833 138.394,198.568 137.252,199.026 137.234 C 200.012 137.195,200.333 137.015,200.333 136.505 C 200.333 135.340,200.681 134.335,201.171 134.081 C 201.809 133.751,202.167 133.205,202.167 132.560 C 202.167 131.124,201.831 131.177,200.092 132.884 M205.971 134.292 C 205.375 134.910,204.688 135.733,204.445 136.119 C 204.197 136.514,203.610 137.072,203.104 137.396 C 201.507 138.418,202.037 139.252,204.211 139.142 C 206.327 139.035,207.235 137.960,207.470 135.284 C 207.681 132.881,207.466 132.739,205.971 134.292 M219.344 144.239 C 219.039 144.554,218.096 145.154,217.249 145.571 C 216.002 146.186,215.667 146.431,215.490 146.857 C 214.874 148.346,213.515 148.888,212.189 148.173 C 211.856 147.994,210.924 147.728,210.119 147.584 C 209.314 147.439,208.206 147.181,207.658 147.010 C 206.854 146.760,206.547 146.735,206.074 146.880 C 205.644 147.012,204.747 146.999,202.702 146.834 C 199.480 146.572,197.647 146.574,195.083 146.842 C 193.971 146.958,193.099 146.975,192.866 146.885 C 192.596 146.780,192.130 146.844,191.283 147.104 C 186.339 148.618,185.596 148.626,184.198 147.181 C 183.426 146.383,182.776 145.890,182.083 145.575 C 181.533 145.325,180.693 144.831,180.215 144.477 C 178.131 142.931,177.293 144.024,178.494 146.722 C 179.403 148.765,180.080 149.536,181.666 150.333 C 182.652 150.829,183.179 151.233,183.854 152.009 C 186.250 154.763,189.005 154.672,190.417 151.791 C 191.426 149.731,193.469 149.285,194.199 150.965 C 194.874 152.520,196.286 152.990,198.058 152.250 C 198.387 152.112,199.024 152.000,199.474 152.000 C 199.923 152.000,200.610 152.112,201.000 152.250 C 202.682 152.844,203.736 152.463,204.524 150.978 C 205.563 149.020,208.107 149.407,208.944 151.650 C 210.052 154.618,213.024 154.793,215.469 152.035 C 216.269 151.132,216.753 150.757,217.709 150.297 C 219.493 149.438,221.179 147.052,221.455 144.996 C 221.631 143.684,220.333 143.218,219.344 144.239 M-0.000 213.292 L 0.000 266.500 86.686 266.500 L 173.372 266.500 173.236 266.042 C 173.161 265.790,173.058 242.108,173.008 213.417 C 172.912 158.700,172.943 160.751,172.213 160.395 C 171.924 160.254,152.636 160.211,49.792 160.125 L -0.000 160.083 -0.000 213.292 " stroke="none" fill="#cb1423" fill-rule="evenodd"></path><path id="path1" d="M173.333 0.063 C 173.333 0.098,173.446 0.395,173.583 0.724 C 173.804 1.252,173.833 7.479,173.833 53.333 C 173.833 110.545,173.917 106.173,172.805 106.781 C 172.016 107.211,2.292 107.348,0.969 106.920 C 0.539 106.781,0.145 106.667,0.094 106.667 C 0.042 106.667,0.000 118.638,0.000 133.269 L 0.000 159.872 0.458 159.735 C 1.356 159.466,171.933 159.468,172.576 159.736 C 173.771 160.235,173.673 155.243,173.624 213.368 C 173.600 242.178,173.516 265.919,173.437 266.125 L 173.294 266.500 199.981 266.500 C 214.658 266.500,226.667 266.472,226.667 266.437 C 226.667 266.402,226.554 266.104,226.416 265.773 C 225.997 264.771,226.123 160.936,226.544 160.317 C 226.706 160.079,227.043 159.779,227.294 159.651 C 227.846 159.367,397.388 159.203,398.583 159.485 C 398.950 159.571,399.419 159.694,399.625 159.757 L 400.000 159.872 400.000 133.250 L 400.000 106.628 399.542 106.765 C 398.598 107.048,227.876 107.031,227.328 106.748 C 226.246 106.188,226.327 110.771,226.376 53.132 C 226.400 24.322,226.484 0.581,226.563 0.375 L 226.706 0.000 200.019 0.000 C 185.342 0.000,173.333 0.028,173.333 0.063 M204.944 106.481 C 205.325 106.699,205.795 107.092,205.988 107.353 C 206.512 108.061,207.077 108.282,209.351 108.667 C 213.574 109.382,215.475 110.263,216.667 112.058 C 217.365 113.110,217.514 113.233,218.833 113.858 C 221.151 114.956,221.607 115.664,220.818 116.941 C 220.232 117.890,219.510 118.060,218.146 117.572 C 217.745 117.429,216.442 117.053,215.250 116.737 C 212.537 116.019,212.509 116.004,211.770 114.843 C 210.509 112.863,209.883 112.623,205.917 112.591 C 202.653 112.565,202.438 112.501,201.574 111.299 C 200.454 109.739,198.724 109.714,197.673 111.240 C 196.820 112.480,196.512 112.576,193.250 112.610 C 189.725 112.646,188.859 112.873,188.087 113.960 C 186.456 116.258,186.809 116.001,184.500 116.581 C 183.354 116.869,181.933 117.268,181.343 117.469 C 179.631 118.050,178.861 117.849,178.247 116.660 C 177.675 115.555,178.149 114.906,180.265 113.897 C 181.726 113.200,181.850 113.100,182.429 112.146 C 183.525 110.342,186.679 108.855,190.333 108.420 C 191.762 108.249,192.363 108.012,193.083 107.334 C 194.439 106.057,194.660 106.015,199.917 106.053 C 204.150 106.083,204.266 106.092,204.944 106.481 M196.710 116.509 C 197.502 116.729,197.777 117.161,197.923 118.417 C 198.074 119.705,198.334 120.001,199.317 119.998 C 200.741 119.993,201.167 119.646,201.167 118.487 C 201.167 116.575,201.635 116.417,207.306 116.417 L 211.863 116.417 212.181 116.810 C 212.357 117.027,212.501 117.402,212.502 117.643 C 212.507 118.534,212.685 118.825,213.343 119.023 C 213.772 119.151,214.314 119.566,214.998 120.287 L 216.014 121.360 217.235 121.246 C 218.696 121.109,218.998 121.236,219.580 122.229 C 219.812 122.626,220.160 123.093,220.352 123.267 C 220.807 123.679,221.152 124.357,221.517 125.561 C 221.681 126.098,222.004 126.812,222.236 127.147 C 222.650 127.744,222.976 131.554,222.860 134.447 C 222.844 134.830,222.938 135.597,223.067 136.151 C 223.239 136.890,223.263 137.460,223.156 138.288 C 223.076 138.909,223.008 139.534,223.005 139.677 C 223.002 139.820,222.662 140.332,222.250 140.815 C 221.368 141.849,221.317 142.280,221.989 143.045 C 222.794 143.962,222.787 144.260,221.910 146.277 C 220.633 149.216,219.698 150.331,217.833 151.140 C 217.369 151.341,216.607 151.957,215.833 152.757 C 213.229 155.448,209.989 155.445,208.553 152.748 C 207.299 150.394,206.123 150.359,204.907 152.638 C 204.099 154.152,203.476 154.274,201.339 153.336 C 199.857 152.685,199.268 152.701,197.610 153.438 C 195.279 154.474,194.401 154.245,193.567 152.384 C 192.889 150.871,191.856 150.827,191.153 152.279 C 189.638 155.408,186.308 155.614,183.512 152.751 C 182.653 151.871,182.000 151.369,181.316 151.062 C 179.610 150.297,178.349 148.613,177.001 145.304 C 176.384 143.791,177.196 142.691,179.068 142.502 C 180.335 142.375,180.128 141.309,178.497 139.572 C 176.891 137.860,175.939 135.121,176.389 133.505 C 176.738 132.247,176.739 131.652,176.391 130.870 C 175.582 129.052,176.158 126.874,177.516 126.613 C 178.441 126.436,178.571 126.298,178.898 125.146 C 179.111 124.394,179.311 124.089,179.911 123.597 C 180.471 123.138,180.719 122.781,180.900 122.172 C 181.374 120.575,181.748 120.268,183.459 120.075 C 185.699 119.821,186.519 120.755,185.642 122.561 C 185.445 122.966,185.324 123.403,185.374 123.531 C 185.449 123.728,187.773 125.000,188.057 125.000 C 188.284 125.000,188.498 123.623,188.496 122.167 C 188.494 120.473,188.468 120.397,187.258 118.669 C 186.674 117.833,186.597 116.918,187.082 116.564 C 187.474 116.277,195.707 116.231,196.710 116.509 M198.268 123.864 C 198.222 124.168,198.193 124.765,198.203 125.190 C 198.230 126.286,197.940 126.848,197.057 127.406 L 196.289 127.892 196.396 129.294 C 196.587 131.773,197.710 132.354,199.766 131.036 C 200.307 130.688,201.101 130.201,201.529 129.952 C 203.150 129.012,203.364 128.266,202.235 127.489 C 201.642 127.082,201.362 126.723,200.992 125.898 C 200.607 125.041,200.440 124.833,200.132 124.831 C 199.604 124.827,199.364 124.645,199.034 123.995 C 198.649 123.237,198.371 123.190,198.268 123.864 M210.827 125.116 C 210.388 127.226,210.360 127.285,209.414 128.093 C 207.861 129.420,207.704 130.883,209.068 131.321 C 210.216 131.689,210.473 132.114,210.689 134.004 C 211.041 137.084,210.685 140.012,209.802 141.296 C 209.245 142.105,209.281 142.349,209.897 141.945 C 211.214 141.082,212.527 138.287,212.098 137.260 C 211.668 136.231,211.970 134.563,213.021 132.153 C 213.595 130.838,213.606 130.613,213.139 129.563 C 212.940 129.116,212.685 128.179,212.572 127.482 C 212.367 126.209,211.586 124.313,211.222 124.206 C 211.105 124.171,210.949 124.529,210.827 125.116 M187.714 126.752 C 186.985 127.263,186.617 128.114,186.736 129.014 C 186.821 129.657,186.770 130.011,186.506 130.608 C 186.082 131.567,186.084 131.685,186.533 132.937 C 186.895 133.948,186.896 133.968,186.596 134.958 C 186.235 136.151,186.448 138.795,187.011 140.109 C 187.188 140.522,187.333 141.221,187.333 141.662 C 187.333 142.924,187.645 143.181,189.361 143.337 C 191.104 143.496,191.671 143.773,192.438 144.840 C 192.764 145.295,193.080 145.674,193.141 145.682 C 193.201 145.690,196.135 145.709,199.662 145.724 L 206.073 145.750 206.545 145.353 C 207.094 144.892,207.896 143.403,207.736 143.143 C 207.661 143.023,206.996 143.003,205.671 143.083 C 202.386 143.280,201.431 142.922,201.144 141.385 C 200.915 140.156,200.757 140.076,199.377 140.487 C 198.230 140.829,198.205 140.848,197.862 141.673 C 197.385 142.822,196.916 143.000,194.380 142.999 C 190.075 142.997,188.809 141.555,188.606 136.417 C 188.460 132.734,188.751 131.762,190.099 131.417 C 191.287 131.113,191.385 130.867,190.894 129.426 C 190.696 128.843,190.480 128.551,190.102 128.354 C 189.817 128.205,189.242 127.728,188.825 127.294 C 188.113 126.552,188.046 126.520,187.714 126.752 M194.728 132.907 C 193.946 133.247,193.943 133.376,194.683 134.485 C 196.067 136.558,197.067 135.889,196.234 133.446 C 195.941 132.584,195.682 132.492,194.728 132.907 M203.160 133.431 C 202.130 135.836,202.903 136.634,204.407 134.717 C 205.327 133.546,205.359 133.230,204.589 132.908 C 203.694 132.534,203.517 132.599,203.160 133.431 " stroke="none" fill="#fbfbfb" fill-rule="evenodd"></path><path id="path2" d="M-0.000 53.184 C -0.000 103.771,0.014 106.363,0.292 106.249 C 0.452 106.182,0.846 106.064,1.167 105.985 C 1.489 105.906,39.823 105.840,86.760 105.837 C 159.909 105.834,171.815 105.800,172.093 105.597 C 172.412 105.364,172.418 104.591,172.500 53.222 C 172.577 4.902,172.604 1.044,172.862 0.542 L 173.141 -0.000 86.571 -0.000 L 0.000 0.000 -0.000 53.184 M194.065 108.349 C 193.631 108.725,192.970 109.223,192.596 109.458 C 190.965 110.479,191.437 111.134,193.917 111.285 C 195.647 111.391,196.091 111.214,196.519 110.245 C 197.426 108.196,195.743 106.897,194.065 108.349 M203.393 107.833 C 202.166 108.323,202.253 110.650,203.517 111.174 C 204.563 111.607,206.500 111.047,206.500 110.311 C 206.500 109.999,205.070 108.240,204.603 107.978 C 204.202 107.753,203.734 107.697,203.393 107.833 M184.988 111.458 C 184.276 111.819,183.991 112.088,183.649 112.722 C 183.078 113.780,182.562 114.277,181.386 114.902 C 180.263 115.498,180.020 116.101,180.917 116.062 C 181.940 116.017,185.360 114.956,185.874 114.523 C 186.423 114.061,187.333 112.310,187.333 111.714 C 187.333 110.907,186.299 110.795,184.988 111.458 M212.857 112.956 C 212.326 113.948,213.798 114.992,216.809 115.758 C 219.178 116.361,219.684 115.851,217.707 114.854 C 217.171 114.583,216.412 114.094,216.021 113.767 C 214.971 112.890,213.143 112.421,212.857 112.956 M189.105 117.876 C 188.382 118.415,189.752 119.928,190.811 119.760 C 191.640 119.628,191.822 119.799,191.873 120.759 L 191.917 121.583 191.365 121.611 C 190.153 121.671,189.833 122.257,189.833 124.420 C 189.833 126.090,190.044 126.612,190.899 127.066 C 191.630 127.455,191.875 127.816,192.227 129.027 C 192.667 130.542,193.718 131.252,194.271 130.408 C 194.612 129.887,194.501 126.702,194.086 125.117 C 193.643 123.421,193.691 123.271,194.639 123.397 C 195.976 123.575,196.533 122.575,196.563 119.943 C 196.587 117.894,196.328 117.549,194.918 117.752 C 193.718 117.926,192.625 117.933,190.917 117.779 C 189.731 117.672,189.351 117.692,189.105 117.876 M205.981 123.834 C 205.185 124.299,204.337 129.260,204.857 130.402 C 205.697 132.245,207.952 128.459,207.249 126.388 C 207.112 125.985,207.000 125.374,207.000 125.031 C 207.000 124.055,206.535 123.510,205.981 123.834 M208.183 133.230 C 208.048 133.393,208.042 133.589,208.163 133.907 C 209.394 137.146,205.532 141.563,203.125 139.669 L 202.704 139.339 202.604 139.711 C 202.160 141.369,202.772 141.901,205.000 141.794 C 208.508 141.627,209.418 140.340,209.307 135.702 C 209.245 133.099,208.908 132.357,208.183 133.230 M399.167 160.427 C 398.685 160.609,383.685 160.649,313.481 160.657 L 228.378 160.667 227.941 161.010 L 227.504 161.354 227.460 213.385 C 227.420 261.652,227.396 265.456,227.138 265.958 L 226.859 266.500 313.429 266.500 L 400.000 266.500 400.000 213.333 C 400.000 184.092,399.944 160.176,399.875 160.187 C 399.806 160.197,399.488 160.306,399.167 160.427 " stroke="none" fill="#042c63" fill-rule="evenodd"></path><path id="path3" d="M196.383 108.170 C 196.618 108.355,196.843 108.674,196.883 108.878 C 196.945 109.200,196.958 109.189,196.977 108.801 C 196.992 108.509,196.871 108.262,196.630 108.093 C 196.086 107.712,195.882 107.776,196.383 108.170 M202.625 108.065 C 202.459 108.191,202.338 108.495,202.344 108.768 L 202.354 109.250 202.519 108.837 C 202.610 108.609,202.804 108.291,202.951 108.128 C 203.263 107.784,203.049 107.743,202.625 108.065 M191.494 110.257 C 191.348 110.433,191.335 110.568,191.452 110.685 C 191.569 110.803,191.649 110.722,191.705 110.428 C 191.801 109.929,191.780 109.912,191.494 110.257 M187.042 111.180 C 187.202 111.273,187.339 111.477,187.346 111.633 C 187.355 111.816,187.390 111.841,187.446 111.703 C 187.545 111.454,187.213 110.998,186.938 111.005 C 186.835 111.008,186.881 111.087,187.042 111.180 M212.875 112.274 C 212.760 112.322,212.667 112.557,212.667 112.796 C 212.667 113.202,212.681 113.210,212.892 112.922 C 213.106 112.630,213.172 112.627,214.140 112.871 C 215.236 113.147,215.361 112.989,214.373 112.576 C 213.610 112.257,213.140 112.162,212.875 112.274 M190.465 120.218 L 190.913 120.685 190.512 121.384 C 190.267 121.811,190.212 122.000,190.372 121.869 C 190.515 121.751,190.921 121.638,191.275 121.619 L 191.917 121.583 191.873 120.762 C 191.820 119.749,191.821 119.750,190.828 119.750 L 190.018 119.750 190.465 120.218 M195.781 123.104 C 195.508 123.469,195.397 123.498,194.656 123.399 L 193.833 123.290 193.845 123.854 C 193.864 124.764,194.087 125.189,194.214 124.557 C 194.302 124.113,194.405 124.031,194.988 123.938 C 195.516 123.853,195.716 123.721,195.925 123.316 C 196.256 122.676,196.182 122.567,195.781 123.104 M213.934 123.264 C 213.692 123.896,213.870 124.799,214.514 126.196 C 215.360 128.033,215.578 130.118,215.101 131.817 C 214.847 132.723,214.845 132.871,215.077 133.428 C 215.664 134.832,215.192 137.511,214.004 139.519 C 213.604 140.196,213.124 141.012,212.937 141.333 C 212.390 142.273,210.844 143.802,209.802 144.436 C 207.276 145.970,208.044 147.499,210.849 146.518 C 212.971 145.776,215.173 144.492,215.786 143.639 C 216.151 143.131,216.924 142.447,217.852 141.812 C 220.954 139.687,221.263 138.496,219.749 134.500 C 219.545 133.960,219.468 133.267,219.476 132.026 C 219.486 130.425,219.452 130.237,218.994 129.378 C 218.605 128.649,218.499 128.237,218.495 127.435 C 218.486 125.673,217.571 124.207,216.173 123.711 C 215.580 123.501,215.022 123.255,214.931 123.164 C 214.675 122.908,214.047 122.971,213.934 123.264 M184.583 126.001 C 184.450 126.215,184.918 126.400,185.261 126.269 C 185.595 126.141,185.411 125.833,185.000 125.833 C 184.827 125.833,184.640 125.909,184.583 126.001 M177.929 128.762 C 177.598 129.093,177.594 129.709,177.918 130.337 C 178.265 131.007,178.770 131.267,178.971 130.877 C 179.289 130.260,179.686 128.833,179.586 128.670 C 179.420 128.403,178.221 128.469,177.929 128.762 M183.816 133.271 C 183.677 133.439,183.589 133.972,183.587 134.661 C 183.584 135.629,183.511 135.896,183.042 136.651 C 182.377 137.720,182.372 137.898,182.987 138.513 C 184.294 139.819,185.172 138.714,184.564 136.528 C 184.305 135.594,184.308 135.537,184.648 134.870 C 185.277 133.636,184.597 132.329,183.816 133.271 M178.333 135.308 C 178.333 135.508,178.905 136.000,179.138 136.000 C 179.392 136.000,179.389 135.622,179.133 135.367 C 178.905 135.138,178.333 135.096,178.333 135.308 M184.508 140.907 C 184.164 141.321,184.360 141.910,184.861 141.968 C 185.386 142.029,185.625 141.545,185.337 141.006 C 185.124 140.608,184.789 140.568,184.508 140.907 M185.397 144.742 C 185.057 145.627,186.433 146.750,187.697 146.621 C 188.185 146.572,188.942 146.606,189.381 146.697 C 190.034 146.833,190.254 146.815,190.589 146.595 C 191.414 146.055,190.852 145.333,189.607 145.333 C 189.146 145.333,188.415 145.162,187.833 144.917 C 186.718 144.447,185.542 144.363,185.397 144.742 " stroke="none" fill="#077521" fill-rule="evenodd"></path><path id="path4" d="M173.455 0.667 C 173.524 0.896,173.600 24.504,173.624 53.128 C 173.672 109.932,173.739 105.951,172.730 106.612 C 172.243 106.931,2.513 107.111,1.000 106.795 C 0.495 106.689,0.462 106.700,0.750 106.878 C 1.378 107.265,172.094 107.168,172.805 106.781 C 173.918 106.173,173.834 110.552,173.826 53.297 C 173.819 7.922,173.787 1.186,173.574 0.750 C 173.388 0.370,173.360 0.350,173.455 0.667 M226.441 0.864 C 226.384 1.076,226.337 24.710,226.336 53.383 C 226.333 110.716,226.249 106.189,227.328 106.747 C 228.021 107.106,398.360 107.131,399.389 106.772 L 400.029 106.550 399.139 106.443 C 398.650 106.384,360.113 106.335,313.500 106.334 C 225.323 106.331,227.713 106.351,227.294 105.618 C 227.126 105.325,227.066 94.642,227.000 53.050 C 226.919 2.047,226.888 -0.804,226.441 0.864 M195.083 106.149 C 194.326 106.341,193.817 106.642,193.083 107.334 C 192.363 108.012,191.762 108.249,190.333 108.420 C 186.679 108.855,183.525 110.342,182.429 112.146 C 181.850 113.100,181.726 113.200,180.265 113.897 C 178.149 114.906,177.675 115.555,178.247 116.660 C 178.861 117.849,179.631 118.050,181.343 117.469 C 181.933 117.268,183.354 116.869,184.500 116.581 C 186.809 116.001,186.456 116.258,188.087 113.960 C 188.859 112.873,189.725 112.646,193.250 112.610 C 196.512 112.576,196.820 112.480,197.673 111.240 C 198.724 109.714,200.454 109.739,201.574 111.299 C 202.438 112.501,202.653 112.565,205.917 112.591 C 209.883 112.623,210.509 112.863,211.770 114.843 C 212.509 116.004,212.537 116.019,215.250 116.737 C 216.442 117.053,217.745 117.429,218.146 117.572 C 219.510 118.060,220.232 117.890,220.818 116.941 C 221.607 115.664,221.151 114.956,218.833 113.858 C 217.514 113.233,217.365 113.110,216.667 112.058 C 215.475 110.263,213.574 109.382,209.351 108.667 C 207.077 108.282,206.512 108.061,205.988 107.353 C 205.115 106.171,204.719 106.087,199.917 106.053 C 197.533 106.036,195.358 106.079,195.083 106.149 M204.327 106.498 C 204.644 106.589,205.281 107.036,205.743 107.491 C 206.831 108.562,207.710 108.934,209.934 109.264 C 213.584 109.805,215.419 110.673,216.556 112.394 C 217.134 113.270,217.340 113.435,218.559 114.001 C 220.470 114.888,221.048 115.601,220.583 116.500 C 219.962 117.701,219.612 117.721,216.216 116.739 C 213.169 115.858,212.779 115.664,212.049 114.659 C 211.753 114.251,211.356 113.715,211.168 113.469 C 210.458 112.540,209.268 112.269,205.863 112.259 L 202.809 112.250 202.279 111.650 C 201.988 111.320,201.559 110.801,201.326 110.496 C 200.438 109.338,198.324 109.633,197.436 111.039 C 196.689 112.219,196.632 112.236,193.000 112.339 C 188.925 112.454,188.538 112.587,187.507 114.219 C 186.679 115.531,186.459 115.683,184.569 116.256 C 183.752 116.503,182.498 116.884,181.783 117.103 C 180.054 117.631,179.590 117.616,178.987 117.013 C 177.902 115.928,178.436 115.001,180.767 113.925 C 181.674 113.506,182.081 113.213,182.294 112.827 C 183.516 110.604,185.034 109.824,190.083 108.827 C 192.198 108.409,192.309 108.361,193.393 107.391 C 193.838 106.993,194.438 106.599,194.726 106.515 C 195.443 106.307,203.612 106.293,204.327 106.498 M187.082 116.564 C 186.597 116.918,186.674 117.833,187.258 118.669 C 188.468 120.397,188.494 120.473,188.496 122.167 C 188.498 123.623,188.284 125.000,188.057 125.000 C 187.773 125.000,185.449 123.728,185.374 123.531 C 185.324 123.403,185.445 122.966,185.642 122.561 C 186.519 120.755,185.699 119.821,183.459 120.075 C 181.748 120.268,181.374 120.575,180.900 122.172 C 180.719 122.781,180.471 123.138,179.911 123.597 C 179.311 124.089,179.111 124.394,178.898 125.146 C 178.571 126.298,178.441 126.436,177.516 126.613 C 176.158 126.874,175.582 129.052,176.391 130.870 C 176.739 131.652,176.738 132.247,176.389 133.505 C 175.939 135.121,176.891 137.860,178.497 139.572 C 180.128 141.309,180.335 142.375,179.068 142.502 C 177.196 142.691,176.384 143.791,177.001 145.304 C 178.349 148.613,179.610 150.297,181.316 151.062 C 182.000 151.369,182.653 151.871,183.512 152.751 C 186.308 155.614,189.638 155.408,191.153 152.279 C 191.856 150.827,192.889 150.871,193.567 152.384 C 194.401 154.245,195.279 154.474,197.610 153.438 C 199.268 152.701,199.857 152.685,201.339 153.336 C 203.476 154.274,204.099 154.152,204.907 152.638 C 206.123 150.359,207.299 150.394,208.553 152.748 C 209.989 155.445,213.229 155.448,215.833 152.757 C 216.607 151.957,217.369 151.341,217.833 151.140 C 219.698 150.331,220.633 149.216,221.910 146.277 C 222.787 144.260,222.794 143.962,221.989 143.045 C 221.317 142.280,221.368 141.849,222.250 140.815 C 222.662 140.332,223.002 139.820,223.005 139.677 C 223.008 139.534,223.076 138.909,223.156 138.288 C 223.263 137.460,223.239 136.890,223.067 136.151 C 222.938 135.597,222.844 134.830,222.860 134.447 C 222.976 131.554,222.650 127.744,222.236 127.147 C 222.004 126.812,221.681 126.098,221.517 125.561 C 221.152 124.357,220.807 123.679,220.352 123.267 C 220.160 123.093,219.812 122.626,219.580 122.229 C 218.998 121.236,218.696 121.109,217.235 121.246 L 216.014 121.360 214.998 120.287 C 214.314 119.566,213.772 119.151,213.343 119.023 C 212.685 118.825,212.507 118.534,212.502 117.643 C 212.501 117.402,212.357 117.027,212.181 116.810 L 211.863 116.417 207.306 116.417 C 201.635 116.417,201.167 116.575,201.167 118.487 C 201.167 119.646,200.741 119.993,199.317 119.998 C 198.334 120.001,198.074 119.705,197.923 118.417 C 197.777 117.161,197.502 116.729,196.710 116.509 C 195.707 116.231,187.474 116.277,187.082 116.564 M196.318 116.681 C 197.402 116.925,197.609 117.363,197.742 119.693 C 197.910 122.649,197.371 125.860,196.671 126.082 C 195.875 126.335,195.750 126.743,195.750 129.088 C 195.750 131.518,195.565 132.066,194.631 132.399 C 193.565 132.779,191.756 131.295,191.232 129.610 C 190.939 128.665,190.735 128.419,189.575 127.603 C 188.697 126.985,188.478 126.113,188.684 124.061 C 188.972 121.206,188.873 120.554,187.948 119.212 C 186.888 117.675,186.958 116.839,188.167 116.622 C 188.893 116.492,195.694 116.541,196.318 116.681 M210.675 117.390 C 211.285 117.694,211.249 118.006,210.465 119.179 L 209.750 120.250 209.750 123.256 C 209.750 126.513,209.643 126.957,208.763 127.358 C 208.449 127.501,208.342 127.741,208.193 128.642 C 207.829 130.841,207.491 131.534,206.569 131.978 C 205.060 132.706,204.701 132.664,203.704 131.642 C 202.730 130.643,202.684 130.447,203.189 129.457 C 203.509 128.828,203.922 125.811,203.733 125.480 C 203.700 125.423,203.450 125.332,203.176 125.277 C 201.669 124.975,201.407 117.894,202.883 117.348 C 203.461 117.134,210.235 117.170,210.675 117.390 M213.886 119.858 C 214.086 119.963,214.671 120.495,215.185 121.040 L 216.120 122.032 217.204 121.915 C 218.370 121.791,218.838 122.035,219.101 122.904 C 219.158 123.094,219.491 123.625,219.841 124.083 C 220.264 124.639,220.585 125.324,220.803 126.136 C 220.988 126.828,221.300 127.537,221.522 127.773 C 221.979 128.260,222.211 130.255,221.994 131.833 C 221.852 132.863,222.063 134.936,222.455 136.369 C 222.892 137.965,222.471 140.097,221.570 140.844 C 221.412 140.976,220.996 141.471,220.646 141.945 C 220.107 142.674,219.871 142.847,219.117 143.066 C 218.113 143.358,217.712 143.714,217.581 144.428 C 217.372 145.564,218.187 145.453,219.406 144.178 C 220.330 143.213,221.625 143.730,221.455 144.996 C 221.179 147.052,219.493 149.438,217.709 150.297 C 216.753 150.757,216.269 151.132,215.469 152.035 C 213.024 154.793,210.052 154.618,208.944 151.650 C 208.139 149.491,205.572 149.020,204.583 150.850 C 204.308 151.359,203.816 152.048,203.490 152.381 L 202.896 152.987 201.823 152.547 C 199.865 151.746,198.258 151.866,196.829 152.920 C 196.023 153.514,195.538 153.466,195.244 152.761 C 195.113 152.447,194.925 152.140,194.827 152.079 C 194.729 152.019,194.471 151.567,194.253 151.074 C 193.462 149.286,191.461 149.660,190.417 151.791 C 189.005 154.672,186.250 154.763,183.854 152.009 C 183.179 151.233,182.652 150.829,181.666 150.333 C 180.080 149.536,179.403 148.765,178.494 146.722 C 177.286 144.010,178.138 142.920,180.231 144.500 C 180.716 144.867,181.173 145.167,181.246 145.167 C 181.492 145.167,181.211 143.090,180.863 142.333 C 180.673 141.921,180.420 141.248,180.301 140.838 C 180.142 140.293,179.927 139.994,179.500 139.723 C 178.257 138.933,177.950 138.580,177.289 137.181 C 176.496 135.502,176.350 134.514,176.730 133.400 C 177.081 132.369,177.070 131.936,176.667 130.873 C 175.787 128.559,176.350 127.025,178.161 126.801 C 178.619 126.744,178.906 126.291,179.175 125.199 C 179.320 124.607,179.482 124.402,180.096 124.032 C 180.696 123.671,180.873 123.453,181.002 122.917 C 181.541 120.680,181.921 120.334,183.838 120.334 C 185.672 120.333,186.227 121.265,185.250 122.702 C 184.632 123.612,184.701 123.788,185.882 124.318 C 187.717 125.141,187.976 125.864,186.909 127.185 C 186.338 127.892,186.322 127.951,186.421 128.942 C 186.505 129.786,186.462 130.088,186.178 130.644 C 185.750 131.483,185.748 131.775,186.163 132.690 C 186.566 133.579,186.582 134.199,186.230 135.234 C 186.005 135.893,185.991 136.184,186.146 136.958 C 186.249 137.470,186.333 138.136,186.333 138.438 C 186.333 138.740,186.495 139.419,186.693 139.947 C 186.890 140.475,187.047 141.241,187.040 141.648 C 187.017 143.187,187.514 143.588,189.715 143.811 C 191.705 144.013,192.500 144.702,192.500 146.226 C 192.500 146.983,193.035 147.115,195.033 146.850 C 197.017 146.587,199.695 146.581,202.671 146.832 C 206.271 147.137,206.359 147.112,207.059 145.618 C 207.674 144.303,208.153 143.780,209.417 143.046 C 211.401 141.893,212.931 139.211,212.753 137.198 C 212.658 136.128,212.688 135.775,212.912 135.343 C 213.120 134.940,213.160 134.591,213.076 133.917 C 212.982 133.161,213.031 132.878,213.399 132.075 C 213.997 130.769,213.837 129.313,212.739 126.083 C 211.799 123.315,211.656 121.748,212.253 120.729 C 212.844 119.722,213.232 119.515,213.886 119.858 M199.034 123.995 C 199.364 124.645,199.604 124.827,200.132 124.831 C 200.440 124.833,200.607 125.041,200.992 125.898 C 201.362 126.723,201.642 127.082,202.235 127.489 C 203.364 128.266,203.150 129.012,201.529 129.952 C 201.101 130.201,200.307 130.688,199.766 131.036 C 197.710 132.354,196.587 131.773,196.396 129.294 L 196.289 127.892 197.057 127.406 C 197.940 126.848,198.230 126.286,198.203 125.190 C 198.158 123.356,198.476 122.898,199.034 123.995 M211.892 125.238 C 212.154 125.775,212.460 126.784,212.572 127.482 C 212.685 128.179,212.940 129.116,213.139 129.563 C 213.606 130.613,213.595 130.838,213.021 132.153 C 211.970 134.563,211.668 136.231,212.098 137.260 C 212.527 138.287,211.214 141.082,209.897 141.945 C 209.281 142.349,209.245 142.105,209.802 141.296 C 210.685 140.012,211.041 137.084,210.689 134.004 C 210.473 132.114,210.216 131.689,209.068 131.321 C 207.704 130.883,207.861 129.420,209.414 128.093 C 210.360 127.285,210.388 127.226,210.827 125.116 C 211.073 123.930,211.265 123.952,211.892 125.238 M190.102 128.354 C 190.480 128.551,190.696 128.843,190.894 129.426 C 191.385 130.867,191.287 131.113,190.099 131.417 C 188.751 131.762,188.460 132.734,188.606 136.417 C 188.809 141.555,190.075 142.997,194.380 142.999 C 196.916 143.000,197.385 142.822,197.862 141.673 C 198.205 140.848,198.230 140.829,199.377 140.487 C 200.757 140.076,200.915 140.156,201.144 141.385 C 201.431 142.922,202.386 143.280,205.671 143.083 C 206.996 143.003,207.661 143.023,207.736 143.143 C 207.896 143.403,207.094 144.892,206.545 145.353 L 206.073 145.750 199.662 145.724 C 196.135 145.709,193.201 145.690,193.141 145.682 C 193.080 145.674,192.764 145.295,192.438 144.840 C 191.671 143.773,191.104 143.496,189.361 143.337 C 187.645 143.181,187.333 142.924,187.333 141.662 C 187.333 141.221,187.188 140.522,187.011 140.109 C 186.448 138.795,186.235 136.151,186.596 134.958 C 186.896 133.968,186.895 133.948,186.533 132.937 C 186.084 131.685,186.082 131.567,186.506 130.608 C 186.770 130.011,186.821 129.657,186.736 129.014 C 186.617 128.114,186.985 127.263,187.714 126.752 C 188.046 126.520,188.113 126.552,188.825 127.294 C 189.242 127.728,189.817 128.205,190.102 128.354 M201.907 131.537 C 202.514 132.404,202.094 133.591,200.947 134.250 C 199.812 134.903,200.610 138.689,201.781 138.206 C 202.636 137.853,204.052 136.744,204.445 136.119 C 204.688 135.733,205.381 134.904,205.984 134.278 C 206.786 133.446,207.127 132.952,207.249 132.444 L 207.417 131.750 208.437 131.701 C 210.259 131.613,210.653 132.648,210.449 136.996 C 210.238 141.527,209.042 142.746,204.806 142.749 C 201.892 142.750,201.671 142.641,201.350 141.031 C 201.070 139.628,201.003 139.562,200.180 139.892 C 199.270 140.256,198.636 140.239,198.124 139.836 C 197.605 139.427,197.440 139.580,197.074 140.812 C 196.307 143.394,191.103 142.631,189.810 139.748 C 189.338 138.695,189.150 134.376,189.527 133.254 C 190.116 131.504,192.428 132.635,194.515 135.693 C 195.831 137.622,197.161 137.947,197.170 136.342 C 197.183 134.065,197.711 132.756,198.728 132.485 C 199.107 132.385,199.827 132.046,200.328 131.734 C 201.401 131.066,201.563 131.046,201.907 131.537 M196.234 133.446 C 197.067 135.889,196.067 136.558,194.683 134.485 C 193.943 133.376,193.946 133.247,194.728 132.907 C 195.682 132.492,195.941 132.584,196.234 133.446 M204.589 132.908 C 205.359 133.230,205.327 133.546,204.407 134.717 C 202.903 136.634,202.130 135.836,203.160 133.431 C 203.517 132.599,203.694 132.534,204.589 132.908 M214.333 146.745 C 214.012 146.867,213.309 147.193,212.771 147.468 L 211.791 147.970 212.304 148.235 C 213.468 148.837,214.597 148.441,215.303 147.184 L 215.688 146.500 215.302 146.512 C 215.090 146.518,214.654 146.623,214.333 146.745 M228.083 159.445 C 227.330 159.612,226.833 159.891,226.550 160.309 C 226.123 160.938,225.992 264.793,226.417 265.707 C 226.564 266.021,226.618 266.075,226.545 265.833 C 226.476 265.604,226.400 241.979,226.377 213.333 C 226.328 155.340,226.229 160.428,227.417 159.834 C 227.961 159.561,397.204 159.437,398.833 159.708 C 399.469 159.814,399.533 159.801,399.250 159.625 C 398.927 159.423,228.988 159.245,228.083 159.445 M0.583 159.755 C 0.217 159.876,-0.046 159.998,0.000 160.028 C 0.046 160.057,38.746 160.119,86.000 160.165 C 134.002 160.213,172.047 160.314,172.213 160.395 C 172.943 160.751,172.913 158.696,173.000 213.417 C 173.078 262.495,173.120 266.752,173.517 265.739 C 173.586 265.562,173.649 241.919,173.655 213.200 C 173.668 155.286,173.768 160.234,172.578 159.737 C 171.760 159.395,1.621 159.413,0.583 159.755 " stroke="none" fill="#d9b910" fill-rule="evenodd"></path><path id="path5" d="M206.294 123.343 C 205.839 123.770,205.810 123.837,206.116 123.752 C 206.616 123.613,206.937 124.164,207.050 125.359 C 207.264 127.618,207.931 127.598,207.899 125.333 C 207.867 123.078,207.312 122.390,206.294 123.343 M207.705 133.774 C 207.617 133.944,207.503 134.667,207.452 135.380 C 207.266 137.952,206.304 139.044,204.138 139.143 C 202.767 139.205,202.596 139.315,203.204 139.741 C 204.757 140.828,207.452 139.271,208.089 136.918 C 208.532 135.281,208.224 132.766,207.705 133.774 M198.556 137.428 C 198.436 137.741,198.731 138.083,198.985 137.926 C 199.260 137.756,199.203 137.167,198.911 137.167 C 198.771 137.167,198.611 137.284,198.556 137.428 " stroke="none" fill="#160f0e" fill-rule="evenodd"></path><path id="path6" d="M173.020 0.226 C 172.538 0.807,172.507 4.028,172.503 53.843 C 172.500 97.846,172.467 105.149,172.263 105.426 C 172.030 105.746,170.920 105.751,86.472 105.833 C -2.124 105.920,0.000 105.903,0.000 106.503 C -0.000 107.145,171.750 107.254,172.730 106.612 C 173.736 105.953,173.667 109.880,173.659 53.380 C 173.652 -0.295,173.649 -0.532,173.020 0.226 M194.726 106.515 C 194.438 106.599,193.838 106.993,193.393 107.391 C 192.309 108.361,192.198 108.409,190.083 108.827 C 185.034 109.824,183.516 110.604,182.294 112.827 C 182.081 113.213,181.674 113.506,180.767 113.925 C 178.436 115.001,177.902 115.928,178.987 117.013 C 179.590 117.616,180.054 117.631,181.783 117.103 C 182.498 116.884,183.752 116.503,184.569 116.256 C 186.459 115.683,186.679 115.531,187.507 114.219 C 188.538 112.587,188.925 112.454,193.000 112.339 C 196.632 112.236,196.689 112.219,197.436 111.039 C 198.324 109.633,200.438 109.338,201.326 110.496 C 201.559 110.801,201.988 111.320,202.279 111.650 L 202.809 112.250 205.863 112.259 C 209.268 112.269,210.458 112.540,211.168 113.469 C 211.356 113.715,211.753 114.251,212.049 114.659 C 212.779 115.664,213.169 115.858,216.216 116.739 C 219.612 117.721,219.962 117.701,220.583 116.500 C 221.048 115.601,220.470 114.888,218.559 114.001 C 217.340 113.435,217.134 113.270,216.556 112.394 C 215.419 110.673,213.584 109.805,209.934 109.264 C 207.710 108.934,206.831 108.562,205.743 107.491 C 205.281 107.036,204.644 106.589,204.327 106.498 C 203.612 106.293,195.443 106.307,194.726 106.515 M196.609 108.085 C 197.923 108.946,196.311 111.333,194.414 111.333 C 191.515 111.333,190.616 110.470,192.500 109.496 C 192.821 109.330,193.492 108.843,193.992 108.413 C 194.992 107.554,195.669 107.469,196.609 108.085 M204.354 107.883 C 204.912 108.139,206.667 110.043,206.667 110.393 C 206.667 111.018,204.461 111.565,203.517 111.174 C 202.568 110.781,201.943 108.415,202.692 108.049 C 203.548 107.630,203.759 107.609,204.354 107.883 M187.383 111.350 C 187.616 111.721,186.607 113.871,185.915 114.479 C 185.378 114.951,182.021 116.014,180.917 116.062 C 180.020 116.101,180.263 115.498,181.386 114.902 C 182.562 114.277,183.078 113.780,183.649 112.722 C 184.383 111.361,186.827 110.462,187.383 111.350 M214.343 112.566 C 214.659 112.699,215.322 113.156,215.818 113.582 C 216.314 114.007,217.161 114.578,217.701 114.851 C 219.685 115.852,219.181 116.363,216.809 115.755 C 213.758 114.973,212.937 114.437,212.718 113.084 C 212.562 112.124,212.980 111.990,214.343 112.566 M188.167 116.622 C 186.958 116.839,186.888 117.675,187.948 119.212 C 188.873 120.554,188.972 121.206,188.684 124.061 C 188.478 126.113,188.697 126.985,189.575 127.603 C 190.735 128.419,190.939 128.665,191.232 129.610 C 191.756 131.295,193.565 132.779,194.631 132.399 C 195.565 132.066,195.750 131.518,195.750 129.088 C 195.750 126.743,195.875 126.335,196.671 126.082 C 197.371 125.860,197.910 122.649,197.742 119.693 C 197.609 117.363,197.402 116.925,196.318 116.681 C 195.694 116.541,188.893 116.492,188.167 116.622 M193.250 117.899 C 193.617 117.892,194.308 117.827,194.786 117.754 C 196.422 117.505,196.890 118.432,196.503 121.149 C 196.230 123.069,195.840 123.802,195.021 123.933 C 194.173 124.068,194.149 124.147,194.334 126.205 C 194.639 129.586,194.483 130.833,193.753 130.833 C 193.233 130.833,192.499 129.965,192.227 129.027 C 191.872 127.808,191.644 127.476,190.855 127.032 C 189.638 126.348,189.406 123.591,190.402 121.626 L 190.887 120.668 189.860 119.598 C 188.270 117.943,188.492 117.590,191.000 117.787 C 191.871 117.856,192.883 117.906,193.250 117.899 M212.962 119.845 C 211.662 120.602,211.587 122.692,212.739 126.083 C 213.837 129.313,213.997 130.769,213.399 132.075 C 213.031 132.878,212.982 133.161,213.076 133.917 C 213.160 134.591,213.120 134.940,212.912 135.343 C 212.688 135.775,212.658 136.128,212.753 137.198 C 212.931 139.211,211.400 141.894,209.417 143.046 C 208.205 143.749,207.587 144.408,207.081 145.535 C 206.537 146.747,206.524 146.732,208.531 147.241 C 211.263 147.934,211.919 147.949,213.043 147.344 C 213.571 147.061,214.396 146.724,214.877 146.595 C 216.598 146.137,217.565 145.455,217.584 144.686 C 217.606 143.811,218.005 143.390,219.117 143.066 C 219.871 142.847,220.107 142.674,220.646 141.945 C 220.996 141.471,221.412 140.976,221.570 140.844 C 222.471 140.097,222.892 137.965,222.455 136.369 C 222.063 134.936,221.852 132.863,221.994 131.833 C 222.211 130.255,221.979 128.260,221.522 127.773 C 221.300 127.537,220.988 126.828,220.803 126.136 C 220.585 125.324,220.264 124.639,219.841 124.083 C 219.491 123.625,219.158 123.094,219.101 122.904 C 218.838 122.035,218.370 121.791,217.204 121.915 L 216.120 122.032 215.185 121.040 C 213.948 119.728,213.539 119.508,212.962 119.845 M182.167 120.625 C 181.573 120.922,181.402 121.258,181.002 122.917 C 180.873 123.453,180.696 123.671,180.096 124.032 C 179.482 124.402,179.320 124.607,179.175 125.199 C 178.906 126.291,178.619 126.744,178.161 126.801 C 176.350 127.025,175.787 128.559,176.667 130.873 C 177.070 131.936,177.081 132.369,176.730 133.400 C 176.350 134.514,176.496 135.502,177.289 137.181 C 177.950 138.580,178.257 138.933,179.500 139.723 C 179.926 139.993,180.143 140.294,180.303 140.838 C 180.423 141.248,180.678 141.936,180.869 142.367 C 181.060 142.798,181.261 143.623,181.316 144.200 L 181.417 145.250 182.375 145.707 C 182.967 145.989,183.739 146.577,184.397 147.248 C 185.648 148.524,185.636 148.522,188.250 147.903 C 191.848 147.050,192.409 146.826,192.469 146.213 C 192.605 144.803,191.699 144.013,189.715 143.811 C 187.514 143.588,187.017 143.187,187.040 141.648 C 187.047 141.241,186.890 140.475,186.693 139.947 C 186.495 139.419,186.333 138.740,186.333 138.438 C 186.333 138.136,186.249 137.470,186.146 136.958 C 185.991 136.184,186.005 135.893,186.230 135.234 C 186.582 134.199,186.566 133.579,186.163 132.690 C 185.748 131.775,185.750 131.483,186.178 130.644 C 186.462 130.088,186.505 129.786,186.421 128.942 C 186.322 127.951,186.338 127.892,186.909 127.185 C 187.976 125.864,187.717 125.141,185.882 124.318 C 184.701 123.788,184.632 123.612,185.250 122.702 C 186.487 120.883,184.428 119.496,182.167 120.625 M205.995 122.787 C 204.636 123.732,203.816 125.269,203.668 127.148 C 203.580 128.269,203.432 128.979,203.187 129.460 C 202.684 130.447,202.730 130.643,203.704 131.642 C 205.617 133.603,207.749 132.086,208.240 128.417 C 208.481 126.611,207.570 126.587,207.167 128.389 C 206.788 130.086,206.254 130.833,205.421 130.833 C 203.889 130.833,204.917 124.188,206.624 123.059 C 207.046 122.780,207.107 122.679,206.902 122.601 C 206.522 122.455,206.452 122.469,205.995 122.787 M214.931 123.164 C 215.022 123.255,215.580 123.501,216.173 123.711 C 217.571 124.207,218.486 125.673,218.495 127.435 C 218.499 128.237,218.605 128.649,218.994 129.378 C 219.452 130.237,219.486 130.425,219.476 132.026 C 219.468 133.267,219.545 133.960,219.749 134.500 C 221.263 138.496,220.954 139.687,217.852 141.812 C 216.924 142.447,216.151 143.131,215.786 143.639 C 215.173 144.492,212.971 145.776,210.849 146.518 C 208.044 147.499,207.276 145.970,209.802 144.436 C 210.844 143.802,212.390 142.273,212.937 141.333 C 213.124 141.012,213.604 140.196,214.004 139.519 C 215.192 137.511,215.664 134.832,215.077 133.428 C 214.845 132.871,214.847 132.723,215.101 131.817 C 215.578 130.118,215.360 128.033,214.514 126.196 C 213.870 124.799,213.692 123.896,213.934 123.264 C 214.047 122.971,214.675 122.908,214.931 123.164 M185.417 126.001 C 185.550 126.215,185.082 126.400,184.739 126.269 C 184.405 126.141,184.589 125.833,185.000 125.833 C 185.173 125.833,185.360 125.909,185.417 126.001 M179.586 128.670 C 179.686 128.833,179.289 130.260,178.971 130.877 C 178.656 131.489,177.667 130.397,177.667 129.437 C 177.667 128.675,179.208 128.059,179.586 128.670 M200.328 131.734 C 199.827 132.046,199.107 132.385,198.728 132.485 C 197.732 132.751,197.185 134.058,197.170 136.208 C 197.162 137.387,198.177 136.534,198.499 135.093 C 198.679 134.286,201.143 131.500,201.677 131.500 C 201.774 131.500,201.807 131.425,201.750 131.333 C 201.579 131.056,201.283 131.140,200.328 131.734 M207.329 132.094 C 207.118 132.649,207.124 132.891,207.362 133.413 L 207.557 133.841 208.013 133.404 C 209.043 132.417,209.328 133.006,209.331 136.135 C 209.335 140.422,208.410 141.632,205.000 141.794 C 202.728 141.903,202.036 141.241,202.673 139.568 C 202.866 139.060,202.150 138.073,201.711 138.242 C 201.485 138.328,201.087 138.002,200.640 137.364 C 200.297 136.874,199.379 137.024,199.158 137.607 C 198.991 138.044,198.829 138.096,198.537 137.804 C 198.387 137.653,198.282 137.749,198.087 138.215 C 197.409 139.838,198.377 140.613,200.180 139.892 C 201.003 139.562,201.070 139.628,201.350 141.031 C 201.671 142.641,201.892 142.750,204.806 142.749 C 209.042 142.746,210.238 141.527,210.449 136.996 C 210.650 132.698,210.269 131.667,208.481 131.667 C 207.572 131.667,207.478 131.702,207.329 132.094 M184.695 133.276 C 185.091 133.634,185.080 134.023,184.648 134.870 C 184.308 135.537,184.305 135.594,184.564 136.528 C 185.172 138.714,184.294 139.819,182.987 138.513 C 182.372 137.898,182.377 137.720,183.042 136.651 C 183.511 135.896,183.584 135.629,183.587 134.661 C 183.592 133.160,184.001 132.648,184.695 133.276 M179.133 135.367 C 179.389 135.622,179.392 136.000,179.138 136.000 C 178.905 136.000,178.333 135.508,178.333 135.308 C 178.333 135.096,178.905 135.138,179.133 135.367 M185.337 141.006 C 185.437 141.193,185.470 141.497,185.412 141.683 C 185.256 142.174,184.437 142.057,184.362 141.532 C 184.255 140.773,184.997 140.372,185.337 141.006 M187.833 144.917 C 188.415 145.162,189.146 145.333,189.607 145.333 C 190.852 145.333,191.414 146.055,190.589 146.595 C 190.254 146.815,190.034 146.833,189.381 146.697 C 188.942 146.606,188.185 146.572,187.697 146.621 C 186.607 146.732,186.165 146.518,185.673 145.642 C 184.988 144.423,185.918 144.110,187.833 144.917 M202.506 152.480 L 201.929 152.583 202.400 152.797 C 202.757 152.958,202.927 152.963,203.102 152.818 C 203.349 152.613,203.416 152.319,203.208 152.355 C 203.140 152.367,202.824 152.424,202.506 152.480 M195.167 152.594 C 195.167 153.359,196.012 153.522,196.833 152.917 L 197.398 152.500 196.282 152.500 C 195.669 152.500,195.167 152.542,195.167 152.594 M228.024 159.679 C 227.153 159.850,226.855 160.076,226.558 160.786 C 226.235 161.559,226.237 264.496,226.560 265.721 C 226.834 266.758,227.123 266.480,227.341 264.970 C 227.430 264.353,227.495 242.692,227.497 212.651 L 227.500 161.385 227.851 161.067 C 228.195 160.756,229.918 160.748,313.642 160.667 C 402.008 160.580,400.000 160.596,400.000 160.002 C 400.000 159.513,230.490 159.194,228.024 159.679 " stroke="none" fill="#4c9e5e" fill-rule="evenodd"></path></g></svg>