<svg id="svg" version="1.1" xmlns="http://www.w3.org/2000/svg" xmlns:xlink="http://www.w3.org/1999/xlink" width="400" height="266.6666666666667" viewBox="0, 0, 400,266.6666666666667"><g id="svgg"><path id="path0" d="M-0.000 44.395 L -0.000 88.789 44.867 88.861 C 89.448 88.933,89.739 88.937,90.657 89.476 C 92.860 90.770,92.667 86.529,92.667 133.639 C 92.667 180.550,92.862 176.020,90.800 176.978 L 90.000 177.349 91.128 177.185 C 92.789 176.944,93.961 177.450,95.308 178.990 C 96.056 179.846,96.632 180.286,96.880 180.191 C 98.210 179.680,98.394 171.197,97.216 164.667 C 95.513 155.221,95.179 152.622,94.924 146.800 C 94.783 143.573,94.552 140.213,94.412 139.333 C 93.949 136.427,94.028 119.177,94.518 116.133 C 96.389 104.524,102.250 94.972,108.337 93.613 C 111.999 92.795,113.338 95.566,111.477 100.112 C 109.461 105.037,110.459 107.449,118.811 117.825 C 120.858 120.369,122.823 122.938,123.176 123.533 L 123.819 124.615 123.366 129.174 C 123.006 132.791,122.969 134.284,123.183 136.400 C 123.331 137.867,123.456 139.800,123.460 140.697 C 123.470 143.094,124.111 143.834,126.038 143.675 C 128.282 143.488,128.592 143.049,128.374 140.365 C 128.187 138.056,128.927 136.533,130.237 136.533 C 130.820 136.533,131.215 135.693,130.897 135.126 C 130.756 134.874,130.457 134.667,130.233 134.667 C 129.367 134.667,128.267 133.174,128.267 132.000 C 128.267 129.598,130.859 128.312,133.660 129.324 C 137.038 130.545,137.750 130.202,137.550 127.450 C 137.419 125.638,136.577 125.280,132.321 125.229 C 125.982 125.153,125.066 123.631,128.542 118.943 C 132.305 113.868,132.421 109.588,128.862 107.100 C 128.207 106.641,127.502 106.146,127.295 105.998 C 127.089 105.851,126.747 105.071,126.536 104.265 C 125.956 102.049,125.027 101.333,122.729 101.333 C 117.658 101.332,116.060 96.793,120.367 94.622 C 120.972 94.318,122.247 93.495,123.200 92.794 C 126.325 90.496,126.503 90.504,132.667 93.179 C 139.789 96.271,140.063 96.505,140.364 99.741 C 140.984 106.406,144.524 106.579,145.351 99.984 C 145.784 96.536,146.139 96.098,149.654 94.693 C 150.724 94.266,152.980 93.288,154.667 92.521 C 158.876 90.607,159.634 90.634,162.543 92.798 C 163.281 93.348,164.579 94.189,165.426 94.667 C 169.589 97.016,168.156 101.333,163.213 101.333 C 160.661 101.333,159.200 102.455,159.200 104.413 C 159.200 105.124,158.542 105.866,156.380 107.595 C 153.453 109.936,153.674 114.408,156.920 118.533 C 160.785 123.445,159.937 125.128,153.544 125.236 C 148.968 125.314,147.677 126.061,148.111 128.376 C 148.414 129.991,148.844 130.309,150.175 129.907 C 154.326 128.654,154.162 128.673,155.478 129.298 C 158.236 130.608,158.193 133.584,155.400 134.642 C 154.339 135.044,154.450 135.857,155.671 136.627 C 157.494 137.778,157.746 138.579,157.206 141.517 C 156.856 143.423,160.374 144.702,161.759 143.172 C 162.562 142.285,162.902 133.413,162.319 128.553 C 161.779 124.055,161.545 124.603,166.873 117.934 C 175.384 107.282,176.352 104.874,174.173 99.763 C 170.928 92.149,178.402 91.173,184.137 98.461 C 187.427 102.642,190.261 109.779,191.175 116.181 C 191.742 120.151,191.584 138.749,190.952 142.533 C 190.805 143.413,190.689 145.693,190.695 147.600 C 190.706 151.299,190.202 155.363,188.728 163.467 C 187.366 170.957,187.539 180.533,189.036 180.533 C 189.180 180.533,189.634 180.067,190.044 179.496 C 191.277 177.781,192.350 177.205,194.240 177.244 C 195.795 177.276,195.827 177.264,194.958 176.972 C 192.825 176.255,193.011 180.444,193.039 133.743 C 193.067 86.839,192.895 90.541,195.097 89.447 C 196.114 88.943,198.011 88.932,298.067 88.864 L 400.000 88.795 400.000 44.398 L 400.000 0.000 200.000 0.000 L 0.000 0.000 -0.000 44.395 M135.742 37.738 C 136.463 38.111,137.333 39.336,137.333 39.977 C 137.333 40.536,136.148 40.838,132.989 41.083 C 120.916 42.019,117.911 45.194,121.615 53.099 L 123.037 56.133 122.988 58.667 C 122.913 62.519,122.287 63.736,120.604 63.296 C 119.295 62.953,115.703 56.934,114.373 52.853 C 112.915 48.380,111.577 47.423,108.667 48.773 C 104.756 50.588,103.330 53.329,104.837 56.137 C 107.655 61.390,106.196 65.912,102.785 62.500 C 101.595 61.311,99.239 56.509,98.959 54.703 C 98.247 50.119,101.845 46.668,110.800 43.344 C 112.267 42.800,114.667 41.837,116.133 41.205 C 119.457 39.773,123.947 38.268,126.023 37.890 C 129.688 37.223,134.598 37.146,135.742 37.738 M158.974 37.716 C 161.148 38.104,167.686 40.226,169.401 41.101 C 169.968 41.390,171.955 42.206,173.816 42.913 C 184.943 47.139,188.289 50.644,186.409 56.107 C 184.199 62.531,180.443 65.760,179.454 62.088 C 179.096 60.758,179.396 59.301,180.516 56.933 C 182.296 53.169,181.447 51.018,177.366 48.950 C 174.140 47.315,172.652 48.320,171.293 53.050 C 170.658 55.261,169.522 57.636,168.334 59.240 C 167.752 60.025,167.004 61.164,166.671 61.773 C 165.973 63.047,165.090 63.564,164.190 63.222 C 163.051 62.788,162.905 62.330,162.851 59.021 L 162.800 55.867 164.184 52.933 C 167.863 45.140,164.841 42.011,152.747 41.091 C 148.143 40.741,147.535 40.250,149.285 38.302 C 150.218 37.265,154.866 36.983,158.974 37.716 M145.579 39.440 L 147.290 40.679 147.330 48.257 C 147.373 56.716,147.603 55.416,145.311 59.673 C 143.855 62.375,141.863 62.551,140.632 60.085 C 140.353 59.525,139.706 58.347,139.196 57.467 L 138.267 55.867 138.381 52.933 C 138.558 48.411,138.550 45.116,138.358 43.042 C 138.154 40.833,138.137 40.872,139.867 39.621 C 142.699 37.573,142.986 37.564,145.579 39.440 M133.213 63.372 C 134.070 64.297,134.038 64.936,133.087 65.887 C 131.520 67.454,129.227 65.745,130.247 63.771 C 130.924 62.463,132.210 62.290,133.213 63.372 M155.391 63.706 C 156.141 64.822,156.141 64.879,155.400 65.708 C 154.093 67.171,151.352 66.206,151.879 64.469 C 152.469 62.522,154.325 62.119,155.391 63.706 M116.027 65.409 C 117.304 66.267,117.350 67.165,116.182 68.440 C 114.377 70.409,111.487 69.208,111.671 66.565 C 111.786 64.900,114.283 64.237,116.027 65.409 M173.479 65.455 C 174.732 66.708,173.987 68.781,172.091 69.312 C 170.592 69.733,168.745 68.299,168.868 66.809 C 169.014 65.037,172.142 64.118,173.479 65.455 M144.221 69.284 C 144.613 69.697,145.260 70.467,145.660 70.995 C 147.044 72.824,148.979 72.936,151.469 71.332 C 153.107 70.276,153.785 70.185,154.697 70.896 C 156.984 72.678,158.256 72.616,160.257 70.625 C 162.086 68.806,162.936 68.891,164.972 71.097 L 166.369 72.609 168.602 72.428 C 173.480 72.032,174.713 76.261,170.810 80.000 C 168.527 82.187,168.273 83.542,169.626 86.320 C 171.030 89.202,169.713 90.088,164.533 89.748 C 162.338 89.603,135.724 89.583,119.454 89.713 C 115.359 89.746,114.758 89.012,116.266 85.824 C 117.485 83.248,117.195 82.044,114.801 79.733 C 111.055 76.118,112.318 72.036,117.060 72.432 L 119.187 72.609 120.327 71.438 C 122.799 68.898,123.411 68.805,125.460 70.661 C 127.597 72.596,128.465 72.669,130.771 71.104 C 132.014 70.260,132.763 70.218,133.679 70.938 C 136.322 73.017,138.889 72.878,140.471 70.570 C 142.012 68.321,142.988 67.986,144.221 69.284 M141.002 79.401 C 139.319 80.444,139.078 82.853,140.513 84.287 C 142.594 86.369,146.133 84.899,146.133 81.953 C 146.133 79.489,143.206 78.034,141.002 79.401 M125.973 80.640 C 123.373 83.241,126.920 87.005,129.662 84.555 C 131.525 82.891,130.329 79.733,127.836 79.733 C 127.104 79.733,126.667 79.946,125.973 80.640 M156.473 80.149 C 155.537 80.657,155.200 81.311,155.200 82.621 C 155.200 85.065,158.038 86.269,159.754 84.554 C 162.057 82.251,159.335 78.596,156.473 80.149 M143.752 81.489 C 144.256 82.096,143.731 82.800,142.775 82.800 C 141.987 82.800,141.661 82.255,141.969 81.451 C 142.166 80.937,143.314 80.961,143.752 81.489 M124.708 154.435 C 123.280 155.266,122.560 160.180,123.572 162.201 C 125.311 165.676,126.496 166.210,128.507 164.424 C 129.235 163.777,130.079 163.168,130.382 163.072 C 131.257 162.795,131.100 161.734,130.124 161.330 C 128.436 160.630,127.855 158.899,128.524 156.564 C 129.043 154.758,126.548 153.366,124.708 154.435 M158.160 154.471 C 157.092 155.020,156.917 155.543,157.301 157.043 C 157.855 159.201,157.059 160.877,155.201 161.466 C 154.380 161.727,154.505 162.801,155.400 163.175 C 155.803 163.343,156.664 163.958,157.312 164.540 C 158.792 165.871,159.294 165.868,160.575 164.521 C 162.628 162.363,163.007 160.796,162.364 157.107 C 161.895 154.414,160.262 153.389,158.160 154.471 M134.439 168.311 C 133.801 168.604,132.601 168.902,131.772 168.972 C 128.644 169.238,128.517 169.479,129.733 172.850 C 132.803 181.361,119.522 186.960,114.533 179.258 C 112.812 176.601,111.311 177.005,108.800 180.800 C 106.902 183.669,106.499 183.864,101.409 184.368 C 97.704 184.734,97.510 184.926,98.071 187.673 C 98.942 191.948,106.529 204.028,110.842 208.009 C 112.971 209.974,118.548 213.957,120.419 214.849 C 122.210 215.702,125.274 216.363,125.022 215.841 C 123.399 212.485,123.443 211.156,125.295 207.600 C 127.041 204.249,127.209 203.328,126.394 201.587 C 125.628 199.952,125.166 199.799,123.550 200.647 C 121.013 201.978,120.320 202.942,120.238 205.254 C 120.173 207.100,120.112 207.258,119.286 207.692 C 118.077 208.329,117.333 207.362,117.333 205.152 C 117.333 203.719,116.536 202.141,115.504 201.531 C 113.124 200.125,112.912 199.346,114.378 197.396 C 114.952 196.632,115.620 195.410,115.861 194.682 C 117.183 190.704,119.927 190.870,121.868 195.045 C 123.216 197.945,124.743 199.463,125.762 198.918 C 127.872 197.788,130.335 193.478,130.658 190.349 C 130.879 188.212,131.133 187.379,132.636 183.867 C 133.140 182.689,133.322 181.795,133.327 180.479 C 133.335 178.325,133.684 177.463,134.701 177.085 C 135.122 176.928,135.836 176.662,136.287 176.492 C 137.713 175.958,137.940 175.298,137.809 172.068 C 137.632 167.686,137.098 167.091,134.439 168.311 M148.542 168.250 C 148.109 169.060,147.678 172.744,147.874 173.963 C 148.133 175.573,148.620 176.164,150.092 176.653 C 151.965 177.275,152.186 177.632,152.328 180.267 C 152.434 182.224,152.607 182.878,153.599 185.058 C 154.485 187.007,154.824 188.164,155.083 190.125 C 155.490 193.208,155.699 193.777,157.196 195.875 C 160.262 200.171,161.581 200.002,163.897 195.015 C 165.886 190.731,168.583 190.667,169.980 194.872 C 170.214 195.578,170.885 196.793,171.470 197.571 C 172.868 199.433,172.784 199.665,169.929 201.792 C 168.833 202.609,168.267 203.941,168.267 205.701 C 168.267 207.590,167.435 208.390,166.267 207.625 C 165.678 207.239,165.600 207.001,165.600 205.581 C 165.600 203.198,164.915 202.161,162.377 200.703 C 160.726 199.755,160.402 199.808,159.611 201.157 C 158.521 203.017,158.667 204.172,160.430 207.612 L 161.927 210.533 161.783 212.841 C 161.618 215.467,161.782 215.667,163.673 215.147 C 166.191 214.454,173.986 208.768,177.030 205.404 C 181.514 200.447,186.994 191.244,187.773 187.362 C 188.199 185.243,187.858 184.533,186.415 184.533 C 180.922 184.533,178.947 183.766,176.933 180.849 C 174.217 176.913,173.029 176.554,171.358 179.162 C 167.734 184.815,158.539 183.761,155.668 177.364 C 155.048 175.983,155.153 174.895,156.140 172.466 C 157.249 169.737,156.989 169.070,154.813 169.061 C 154.073 169.058,152.627 168.758,151.600 168.396 C 149.348 167.599,148.902 167.578,148.542 168.250 M114.843 185.484 C 115.338 186.774,109.742 193.181,108.498 192.748 C 106.182 191.941,105.112 189.433,106.587 188.272 C 108.958 186.407,114.482 184.541,114.843 185.484 M174.914 186.125 C 180.336 188.361,181.176 189.804,178.368 192.061 C 176.981 193.177,176.608 193.139,175.363 191.761 C 174.760 191.094,173.986 190.244,173.643 189.874 C 169.469 185.365,169.911 184.062,174.914 186.125 M126.933 216.793 C 126.933 217.886,136.142 220.267,140.370 220.267 C 143.878 220.267,150.272 219.250,149.791 218.769 C 149.728 218.705,146.689 218.533,143.038 218.386 C 135.786 218.093,130.914 217.590,129.100 216.947 C 127.767 216.474,126.933 216.415,126.933 216.793 " stroke="none" fill="#c2353c" fill-rule="evenodd"></path><path id="path1" d="M141.969 81.451 C 141.661 82.255,141.987 82.800,142.775 82.800 C 143.731 82.800,144.256 82.096,143.752 81.489 C 143.314 80.961,142.166 80.937,141.969 81.451 M-0.000 133.128 L -0.000 177.467 44.733 177.405 C 91.592 177.341,90.846 177.361,92.016 176.116 L 92.667 175.424 92.667 133.645 C 92.667 86.528,92.860 90.770,90.657 89.476 C 89.739 88.937,89.448 88.933,44.867 88.861 L 0.000 88.789 -0.000 133.128 M196.498 89.071 C 194.838 89.352,193.996 89.954,193.488 91.225 C 192.757 93.051,192.801 174.981,193.533 175.968 C 194.595 177.400,188.619 177.319,298.007 177.395 L 400.000 177.467 400.000 133.133 L 400.000 88.800 298.867 88.831 C 243.243 88.849,197.177 88.957,196.498 89.071 " stroke="none" fill="#0e4370" fill-rule="evenodd"></path><path id="path2" d="M128.400 37.508 C 125.116 37.898,120.766 39.209,116.133 41.205 C 114.667 41.837,112.267 42.800,110.800 43.344 C 101.845 46.668,98.247 50.119,98.959 54.703 C 99.239 56.509,101.595 61.311,102.785 62.500 C 106.196 65.912,107.655 61.390,104.837 56.137 C 103.330 53.329,104.756 50.588,108.667 48.773 C 111.577 47.423,112.915 48.380,114.373 52.853 C 115.703 56.934,119.295 62.953,120.604 63.296 C 122.287 63.736,122.913 62.519,122.988 58.667 L 123.037 56.133 121.615 53.099 C 117.911 45.194,120.916 42.019,132.989 41.083 C 137.306 40.748,137.747 40.507,136.929 38.925 C 136.170 37.457,133.111 36.949,128.400 37.508 M150.267 37.585 C 149.566 37.872,148.903 38.627,148.560 39.529 C 148.163 40.575,148.726 40.785,152.747 41.091 C 164.841 42.011,167.863 45.140,164.184 52.933 L 162.800 55.867 162.851 59.021 C 162.905 62.330,163.051 62.788,164.190 63.222 C 165.090 63.564,165.973 63.047,166.671 61.773 C 167.004 61.164,167.752 60.025,168.334 59.240 C 169.522 57.636,170.658 55.261,171.293 53.050 C 172.652 48.320,174.140 47.315,177.366 48.950 C 181.447 51.018,182.296 53.169,180.516 56.933 C 179.396 59.301,179.096 60.758,179.454 62.088 C 180.443 65.760,184.199 62.531,186.409 56.107 C 188.289 50.644,184.943 47.139,173.816 42.913 C 171.955 42.206,169.968 41.390,169.401 41.101 C 164.147 38.421,153.158 36.402,150.267 37.585 M142.000 38.274 C 141.044 38.731,138.606 40.468,138.358 40.868 C 138.262 41.023,138.262 42.002,138.358 43.042 C 138.550 45.116,138.558 48.411,138.381 52.933 L 138.267 55.867 139.196 57.467 C 139.706 58.347,140.353 59.525,140.632 60.085 C 141.863 62.551,143.855 62.375,145.311 59.673 C 147.603 55.416,147.373 56.716,147.330 48.257 L 147.290 40.679 145.579 39.440 C 143.499 37.935,143.029 37.782,142.000 38.274 M130.994 62.845 C 129.363 63.501,130.133 66.667,131.923 66.667 C 132.485 66.667,133.867 65.193,133.867 64.593 C 133.867 63.394,132.180 62.368,130.994 62.845 M152.622 63.254 C 151.626 64.342,151.602 64.976,152.521 65.896 C 154.238 67.613,156.736 65.707,155.391 63.706 C 154.613 62.547,153.445 62.356,152.622 63.254 M112.299 65.432 C 110.826 67.001,112.024 69.349,114.331 69.414 C 115.545 69.449,117.147 67.846,117.016 66.728 C 116.818 65.032,113.525 64.127,112.299 65.432 M169.839 65.409 C 168.295 66.445,168.618 68.184,170.539 69.180 C 171.982 69.929,174.133 68.568,174.133 66.906 C 174.133 64.998,171.709 64.153,169.839 65.409 M141.610 69.117 C 141.311 69.438,140.798 70.092,140.471 70.570 C 138.889 72.878,136.322 73.017,133.679 70.938 C 132.763 70.218,132.014 70.260,130.771 71.104 C 128.465 72.669,127.597 72.596,125.460 70.661 C 123.411 68.805,122.799 68.898,120.327 71.438 L 119.187 72.609 117.060 72.432 C 112.318 72.036,111.055 76.118,114.801 79.733 C 117.195 82.044,117.485 83.248,116.266 85.824 C 114.758 89.012,115.359 89.746,119.454 89.713 C 135.724 89.583,162.338 89.603,164.533 89.748 C 169.713 90.088,171.030 89.202,169.626 86.320 C 168.273 83.542,168.527 82.187,170.810 80.000 C 174.713 76.261,173.480 72.032,168.602 72.428 L 166.369 72.609 164.972 71.097 C 162.936 68.891,162.086 68.806,160.257 70.625 C 158.256 72.616,156.984 72.678,154.697 70.896 C 153.785 70.185,153.107 70.276,151.469 71.332 C 148.979 72.936,147.044 72.824,145.660 70.995 C 143.725 68.439,142.689 67.959,141.610 69.117 M145.227 79.840 C 146.875 81.488,146.259 84.131,144.010 85.063 C 142.234 85.798,139.956 84.527,139.595 82.599 C 139.027 79.571,143.007 77.620,145.227 79.840 M129.662 80.511 C 131.551 82.199,130.328 85.333,127.780 85.333 C 125.287 85.333,124.173 82.440,125.973 80.640 C 127.171 79.442,128.417 79.399,129.662 80.511 M159.156 80.111 C 161.662 81.407,160.689 85.333,157.861 85.333 C 155.136 85.333,154.094 81.440,156.473 80.149 C 157.400 79.646,158.235 79.634,159.156 80.111 M125.867 91.243 C 125.353 91.393,124.153 92.090,123.200 92.792 C 122.247 93.494,120.972 94.318,120.367 94.622 C 116.060 96.793,117.658 101.332,122.729 101.333 C 125.027 101.333,125.956 102.049,126.536 104.265 C 126.747 105.071,127.089 105.851,127.295 105.998 C 127.502 106.146,128.207 106.641,128.862 107.100 C 132.421 109.588,132.305 113.868,128.542 118.943 C 125.066 123.631,125.982 125.153,132.321 125.229 C 136.577 125.280,137.419 125.638,137.550 127.450 C 137.750 130.202,137.038 130.545,133.660 129.324 C 130.859 128.312,128.267 129.598,128.267 132.000 C 128.267 133.177,129.367 134.667,130.237 134.667 C 130.820 134.667,131.215 135.507,130.897 136.074 C 130.756 136.326,130.457 136.533,130.233 136.533 C 128.927 136.533,128.187 138.058,128.374 140.365 C 128.592 143.049,128.282 143.488,126.038 143.675 C 124.111 143.834,123.470 143.094,123.460 140.697 C 123.456 139.800,123.331 137.867,123.183 136.400 C 122.969 134.284,123.006 132.791,123.366 129.174 L 123.819 124.615 123.176 123.533 C 122.823 122.938,120.858 120.369,118.811 117.825 C 110.459 107.449,109.461 105.037,111.477 100.112 C 113.338 95.566,111.999 92.795,108.337 93.613 C 102.250 94.972,96.389 104.524,94.518 116.133 C 94.028 119.177,93.949 136.427,94.412 139.333 C 94.552 140.213,94.783 143.573,94.924 146.800 C 95.179 152.622,95.513 155.221,97.216 164.667 C 98.397 171.213,98.210 179.680,96.874 180.193 C 96.620 180.291,96.096 179.899,95.415 179.103 C 94.831 178.419,94.123 177.737,93.841 177.586 C 93.254 177.272,5.823 177.262,2.267 177.576 L 0.133 177.764 1.333 178.343 L 2.533 178.922 46.742 178.927 C 94.737 178.934,92.212 178.855,93.209 180.376 C 93.457 180.754,94.194 182.834,94.847 184.998 C 105.477 220.204,143.609 233.900,171.941 212.689 C 181.469 205.555,187.486 196.498,191.450 183.322 C 192.059 181.297,192.456 180.451,193.079 179.855 L 193.902 179.067 295.951 178.933 C 397.166 178.801,398.008 178.796,398.933 178.270 L 399.867 177.740 397.733 177.562 C 396.560 177.464,349.890 177.371,294.021 177.355 L 192.443 177.326 191.616 177.893 C 191.161 178.205,190.454 178.926,190.044 179.496 C 189.634 180.067,189.180 180.533,189.036 180.533 C 187.539 180.533,187.366 170.957,188.728 163.467 C 190.202 155.363,190.706 151.299,190.695 147.600 C 190.689 145.693,190.805 143.413,190.952 142.533 C 191.584 138.749,191.742 120.151,191.175 116.181 C 190.261 109.779,187.427 102.642,184.137 98.461 C 178.402 91.173,170.928 92.149,174.173 99.763 C 176.352 104.874,175.384 107.282,166.873 117.934 C 161.545 124.603,161.779 124.055,162.319 128.553 C 162.902 133.413,162.562 142.285,161.759 143.172 C 160.374 144.702,156.856 143.423,157.206 141.517 C 157.746 138.579,157.494 137.778,155.671 136.627 C 154.450 135.857,154.339 135.044,155.400 134.642 C 158.193 133.584,158.236 130.608,155.478 129.298 C 154.162 128.673,154.326 128.654,150.175 129.907 C 148.844 130.309,148.414 129.991,148.111 128.376 C 147.677 126.061,148.968 125.314,153.544 125.236 C 159.937 125.128,160.785 123.445,156.920 118.533 C 153.674 114.408,153.453 109.936,156.380 107.595 C 158.542 105.866,159.200 105.124,159.200 104.413 C 159.200 102.455,160.661 101.333,163.213 101.333 C 168.156 101.333,169.589 97.016,165.426 94.667 C 164.579 94.189,163.281 93.348,162.543 92.798 C 159.634 90.634,158.876 90.607,154.667 92.521 C 152.980 93.288,150.724 94.266,149.654 94.693 C 146.139 96.098,145.784 96.536,145.351 99.984 C 144.524 106.579,140.984 106.406,140.364 99.741 C 140.059 96.461,139.831 96.273,132.133 92.958 C 127.550 90.984,127.140 90.872,125.867 91.243 M134.293 96.421 C 136.766 97.258,137.425 97.982,138.016 100.514 C 139.062 104.992,141.719 110.400,142.874 110.400 C 144.026 110.400,146.583 105.248,147.628 100.822 C 148.234 98.255,148.644 97.642,150.244 96.909 C 153.770 95.295,155.760 95.501,156.092 97.515 C 156.441 99.624,156.276 100.358,154.695 103.722 C 151.534 110.447,151.445 113.744,154.278 119.152 C 155.641 121.753,155.510 121.886,151.294 122.169 C 146.271 122.506,143.447 123.586,144.245 124.865 C 145.479 126.841,145.670 128.151,145.838 135.781 C 146.060 145.897,145.860 145.640,153.686 145.910 C 156.562 146.009,159.588 146.262,160.601 146.487 C 164.353 147.320,164.917 146.593,164.977 140.847 C 165.001 138.548,165.148 136.187,165.304 135.600 C 165.731 133.994,165.655 132.112,165.065 129.650 C 163.978 125.118,164.155 124.658,169.588 117.867 C 177.153 108.412,178.376 105.148,176.413 99.644 C 175.282 96.472,176.149 95.333,178.802 96.507 C 184.383 98.976,189.784 112.544,188.915 121.916 C 188.775 123.429,188.738 126.407,188.834 128.533 C 189.046 133.265,188.712 139.446,188.099 142.133 C 187.768 143.587,187.654 145.189,187.683 148.000 C 187.717 151.318,187.549 153.077,186.495 160.400 C 185.286 168.810,185.270 169.005,185.427 173.894 C 185.642 180.636,185.501 181.055,183.005 181.063 C 180.982 181.069,179.601 180.424,178.639 179.026 C 178.194 178.380,177.105 177.045,176.217 176.059 C 173.840 173.418,172.604 171.379,171.827 168.813 C 170.976 166.009,170.731 165.521,169.336 163.855 C 167.179 161.279,165.388 157.878,164.765 155.173 C 164.317 153.226,164.023 152.515,163.415 151.907 C 162.563 151.055,162.971 151.069,158.267 151.723 C 157.240 151.866,154.708 151.986,152.639 151.991 C 145.944 152.007,146.050 151.811,145.830 164.521 C 145.690 172.640,145.577 174.692,145.177 176.388 C 144.607 178.807,144.724 179.120,146.428 179.716 C 148.112 180.306,148.633 180.765,149.171 182.133 C 149.431 182.793,150.088 184.053,150.631 184.933 C 152.121 187.346,152.310 187.932,152.414 190.456 C 152.518 192.995,152.678 193.420,154.636 196.365 L 155.862 198.210 156.008 201.305 L 156.154 204.400 157.673 207.333 C 160.149 212.114,160.004 212.720,156.079 213.993 C 149.232 216.213,136.925 216.223,129.777 214.015 C 125.749 212.770,125.591 212.144,128.067 207.242 L 129.733 203.943 129.733 201.216 C 129.733 198.209,129.471 198.902,132.321 194.377 C 133.083 193.166,133.192 192.742,133.331 190.435 C 133.474 188.067,133.575 187.693,134.528 185.991 C 136.000 183.364,136.782 181.784,136.792 181.418 C 136.805 180.922,138.185 180.064,139.312 179.853 C 141.163 179.506,141.403 179.011,140.757 176.880 C 140.259 175.240,140.190 174.110,140.037 165.067 C 139.805 151.430,140.242 152.093,131.333 151.885 C 128.840 151.827,126.114 151.644,125.276 151.478 C 122.642 150.957,121.789 151.744,120.964 155.458 C 120.476 157.656,118.266 161.649,116.130 164.193 C 115.195 165.307,114.793 166.137,114.126 168.327 C 113.220 171.302,112.318 172.863,110.080 175.333 C 109.283 176.213,108.125 177.623,107.508 178.465 C 106.029 180.483,105.417 180.846,103.225 181.003 C 100.204 181.219,100.244 181.319,100.326 173.796 C 100.392 167.715,100.374 167.482,99.357 161.200 C 98.495 155.879,98.286 153.811,98.117 148.933 C 97.970 144.670,97.785 142.593,97.441 141.333 C 97.040 139.863,96.962 138.344,96.931 131.333 C 96.911 126.787,96.805 122.227,96.696 121.200 C 95.980 114.476,100.228 102.236,104.696 98.153 C 108.595 94.590,110.740 95.521,109.200 100.108 C 107.467 105.272,108.653 108.419,115.642 117.200 C 121.725 124.844,121.841 125.110,120.817 129.063 C 120.181 131.518,120.074 134.185,120.524 136.357 C 120.686 137.138,120.845 139.468,120.876 141.534 C 120.953 146.589,121.861 147.521,125.602 146.383 C 126.114 146.228,128.955 146.018,131.914 145.917 C 140.007 145.641,139.800 145.907,140.023 135.467 C 140.185 127.906,140.253 127.414,141.461 125.078 C 142.279 123.496,140.015 122.546,134.519 122.163 C 129.983 121.847,130.012 121.888,131.847 118.291 C 134.295 113.493,134.108 110.146,131.030 103.667 C 128.039 97.371,129.236 94.711,134.293 96.421 M127.433 154.428 C 128.539 154.814,128.851 155.425,128.524 156.564 C 127.855 158.899,128.436 160.630,130.124 161.330 C 131.100 161.734,131.257 162.795,130.382 163.072 C 130.079 163.168,129.235 163.777,128.507 164.424 C 127.029 165.736,126.803 165.797,125.859 165.142 C 123.703 163.642,122.786 161.391,123.193 158.601 C 123.803 154.435,124.757 153.495,127.433 154.428 M161.443 154.752 C 162.627 155.936,163.049 160.606,162.134 162.399 C 160.576 165.452,159.070 166.121,157.312 164.540 C 156.664 163.958,155.803 163.343,155.400 163.175 C 154.505 162.801,154.380 161.727,155.201 161.466 C 157.059 160.877,157.855 159.201,157.301 157.043 C 156.666 154.564,159.621 152.930,161.443 154.752 M123.256 167.933 C 124.296 169.040,127.463 174.154,127.496 174.783 C 127.684 178.277,124.125 180.864,121.409 179.208 C 117.759 176.983,117.523 176.081,119.569 172.193 C 120.246 170.907,120.800 169.681,120.800 169.469 C 120.800 167.644,122.176 166.784,123.256 167.933 M164.357 167.933 C 164.561 168.337,164.929 169.282,165.175 170.035 C 165.421 170.787,166.097 172.191,166.678 173.154 C 168.247 175.755,168.164 176.185,165.716 178.130 C 162.925 180.348,161.103 180.254,159.110 177.792 C 157.673 176.017,157.804 174.985,159.880 171.738 C 162.980 166.890,163.574 166.385,164.357 167.933 M137.337 168.467 C 138.541 170.946,137.894 175.890,136.287 176.492 C 135.836 176.662,135.122 176.928,134.701 177.085 C 133.684 177.463,133.335 178.325,133.327 180.479 C 133.322 181.795,133.140 182.689,132.636 183.867 C 131.133 187.379,130.879 188.212,130.658 190.349 C 130.335 193.478,127.872 197.788,125.762 198.918 C 124.743 199.463,123.216 197.945,121.868 195.045 C 119.927 190.870,117.183 190.704,115.861 194.682 C 115.620 195.410,114.952 196.632,114.378 197.396 C 112.912 199.346,113.124 200.125,115.504 201.531 C 116.536 202.141,117.333 203.719,117.333 205.152 C 117.333 207.362,118.077 208.329,119.286 207.692 C 120.112 207.258,120.173 207.100,120.238 205.254 C 120.320 202.942,121.013 201.978,123.550 200.647 C 125.166 199.799,125.628 199.952,126.394 201.587 C 127.209 203.328,127.041 204.249,125.295 207.600 C 123.443 211.156,123.399 212.485,125.022 215.841 C 125.274 216.363,122.210 215.702,120.419 214.849 C 118.548 213.957,112.971 209.974,110.842 208.009 C 106.529 204.028,98.942 191.948,98.071 187.673 C 97.510 184.926,97.704 184.734,101.409 184.368 C 106.499 183.864,106.902 183.669,108.800 180.800 C 111.311 177.005,112.812 176.601,114.533 179.258 C 118.009 184.623,126.947 183.765,129.840 177.788 C 130.572 176.276,130.547 175.105,129.733 172.850 C 128.517 169.479,128.644 169.238,131.772 168.972 C 132.601 168.902,133.801 168.604,134.439 168.311 C 136.126 167.537,136.906 167.578,137.337 168.467 M151.600 168.396 C 152.627 168.758,154.073 169.058,154.813 169.061 C 156.989 169.070,157.249 169.737,156.140 172.466 C 155.153 174.895,155.048 175.983,155.668 177.364 C 158.539 183.761,167.734 184.815,171.358 179.162 C 173.029 176.554,174.217 176.913,176.933 180.849 C 178.947 183.766,180.922 184.533,186.415 184.533 C 187.858 184.533,188.199 185.243,187.773 187.362 C 187.279 189.826,184.004 196.136,181.076 200.267 C 175.718 207.826,165.292 216.103,162.159 215.284 C 161.678 215.158,161.649 214.970,161.783 212.841 L 161.927 210.533 160.430 207.612 C 158.667 204.172,158.521 203.017,159.611 201.157 C 160.402 199.808,160.726 199.755,162.377 200.703 C 164.915 202.161,165.600 203.198,165.600 205.581 C 165.600 207.001,165.678 207.239,166.267 207.625 C 167.435 208.390,168.267 207.590,168.267 205.701 C 168.267 203.941,168.833 202.609,169.929 201.792 C 172.784 199.665,172.868 199.433,171.470 197.571 C 170.885 196.793,170.214 195.578,169.980 194.872 C 168.583 190.667,165.886 190.731,163.897 195.015 C 161.581 200.002,160.262 200.171,157.196 195.875 C 155.699 193.777,155.490 193.208,155.083 190.125 C 154.824 188.164,154.485 187.007,153.599 185.058 C 152.607 182.878,152.434 182.224,152.328 180.267 C 152.186 177.632,151.965 177.275,150.092 176.653 C 148.012 175.962,147.473 174.469,147.981 170.813 C 148.453 167.421,148.588 167.331,151.600 168.396 M112.133 185.576 C 106.072 187.806,104.631 189.414,106.774 191.556 C 108.715 193.497,108.973 193.424,111.857 190.130 C 115.902 185.510,115.984 184.160,112.133 185.576 M170.850 185.253 C 170.489 185.837,171.585 187.651,173.643 189.874 C 173.986 190.244,174.760 191.094,175.363 191.761 C 176.608 193.139,176.981 193.177,178.368 192.061 C 180.460 190.379,180.427 188.969,178.266 187.733 C 175.267 186.017,171.215 184.662,170.850 185.253 M129.100 216.947 C 130.914 217.590,135.786 218.093,143.038 218.386 C 150.370 218.682,150.520 218.707,148.486 219.294 C 142.614 220.991,132.871 220.120,127.667 217.432 C 126.057 216.600,127.114 216.243,129.100 216.947 " stroke="none" fill="#e1b83f" fill-rule="evenodd"></path><path id="path3" d="M130.273 96.086 C 129.028 97.019,129.336 100.101,131.030 103.667 C 134.108 110.146,134.295 113.493,131.847 118.291 C 130.012 121.888,129.983 121.847,134.519 122.163 C 140.015 122.546,142.279 123.496,141.461 125.078 C 140.253 127.414,140.185 127.906,140.023 135.467 C 139.800 145.907,140.007 145.641,131.914 145.917 C 128.955 146.018,126.114 146.228,125.602 146.383 C 121.861 147.521,120.953 146.589,120.876 141.534 C 120.845 139.468,120.686 137.138,120.524 136.357 C 120.074 134.185,120.181 131.518,120.817 129.063 C 121.841 125.110,121.725 124.844,115.642 117.200 C 108.653 108.419,107.467 105.272,109.200 100.108 C 110.740 95.521,108.595 94.590,104.696 98.153 C 100.228 102.236,95.980 114.476,96.696 121.200 C 96.805 122.227,96.911 126.787,96.931 131.333 C 96.962 138.344,97.040 139.863,97.441 141.333 C 97.785 142.593,97.970 144.670,98.117 148.933 C 98.286 153.811,98.495 155.879,99.357 161.200 C 100.374 167.482,100.392 167.715,100.326 173.796 C 100.244 181.319,100.204 181.219,103.225 181.003 C 105.417 180.846,106.029 180.483,107.508 178.465 C 108.125 177.623,109.283 176.213,110.080 175.333 C 112.318 172.863,113.220 171.302,114.126 168.327 C 114.793 166.137,115.195 165.307,116.130 164.193 C 118.266 161.649,120.476 157.656,120.964 155.458 C 121.789 151.744,122.642 150.957,125.276 151.478 C 126.114 151.644,128.840 151.827,131.333 151.885 C 140.242 152.093,139.805 151.430,140.037 165.067 C 140.190 174.110,140.259 175.240,140.757 176.880 C 141.403 179.011,141.163 179.506,139.312 179.853 C 138.185 180.064,136.805 180.922,136.792 181.418 C 136.782 181.784,136.000 183.364,134.528 185.991 C 133.575 187.693,133.474 188.067,133.331 190.435 C 133.192 192.742,133.083 193.166,132.321 194.377 C 129.471 198.902,129.733 198.209,129.733 201.216 L 129.733 203.943 128.067 207.242 C 125.591 212.144,125.749 212.770,129.777 214.015 C 136.925 216.223,149.232 216.213,156.079 213.993 C 160.004 212.720,160.149 212.114,157.673 207.333 L 156.154 204.400 156.008 201.305 L 155.862 198.210 154.636 196.365 C 152.678 193.420,152.518 192.995,152.414 190.456 C 152.310 187.932,152.121 187.346,150.631 184.933 C 150.088 184.053,149.431 182.793,149.171 182.133 C 148.633 180.765,148.112 180.306,146.428 179.716 C 144.724 179.120,144.607 178.807,145.177 176.388 C 145.577 174.692,145.690 172.640,145.830 164.521 C 146.050 151.811,145.944 152.007,152.639 151.991 C 154.708 151.986,157.240 151.866,158.267 151.723 C 162.971 151.069,162.563 151.055,163.415 151.907 C 164.023 152.515,164.317 153.226,164.765 155.173 C 165.388 157.878,167.179 161.279,169.336 163.855 C 170.731 165.521,170.976 166.009,171.827 168.813 C 172.604 171.379,173.840 173.418,176.217 176.059 C 177.105 177.045,178.194 178.380,178.639 179.026 C 179.601 180.424,180.982 181.069,183.005 181.063 C 185.501 181.055,185.642 180.636,185.427 173.894 C 185.270 169.005,185.286 168.810,186.495 160.400 C 187.549 153.077,187.717 151.318,187.683 148.000 C 187.654 145.189,187.768 143.587,188.099 142.133 C 188.712 139.446,189.046 133.265,188.834 128.533 C 188.738 126.407,188.775 123.429,188.915 121.916 C 189.784 112.544,184.383 98.976,178.802 96.507 C 176.149 95.333,175.282 96.472,176.413 99.644 C 178.376 105.148,177.153 108.412,169.588 117.867 C 164.155 124.658,163.978 125.118,165.065 129.650 C 165.655 132.112,165.731 133.994,165.304 135.600 C 165.148 136.187,165.001 138.548,164.977 140.847 C 164.917 146.593,164.353 147.320,160.601 146.487 C 159.588 146.262,156.562 146.009,153.686 145.910 C 145.860 145.640,146.060 145.897,145.838 135.781 C 145.670 128.151,145.479 126.841,144.245 124.865 C 143.447 123.586,146.271 122.506,151.294 122.169 C 155.510 121.886,155.641 121.753,154.278 119.152 C 151.445 113.744,151.534 110.447,154.695 103.722 C 156.276 100.358,156.441 99.624,156.092 97.515 C 155.760 95.501,153.770 95.295,150.244 96.909 C 148.644 97.642,148.234 98.255,147.628 100.822 C 146.583 105.248,144.026 110.400,142.874 110.400 C 141.719 110.400,139.062 104.992,138.016 100.514 C 137.825 99.697,137.534 98.775,137.369 98.466 C 136.472 96.790,131.541 95.137,130.273 96.086 M121.249 168.142 C 121.002 168.661,120.800 169.258,120.800 169.469 C 120.800 169.681,120.246 170.907,119.569 172.193 C 117.523 176.081,117.759 176.983,121.409 179.208 C 123.612 180.551,127.260 178.621,127.472 176.000 C 127.586 174.590,127.415 174.150,125.706 171.449 C 122.890 166.998,122.081 166.398,121.249 168.142 M162.332 168.071 C 158.262 173.407,157.477 175.775,159.110 177.792 C 161.103 180.254,162.925 180.348,165.716 178.130 C 168.164 176.185,168.247 175.755,166.678 173.154 C 166.097 172.191,165.421 170.787,165.175 170.035 C 164.176 166.977,163.515 166.521,162.332 168.071 M0.000 222.267 L 0.000 266.667 200.000 266.667 L 400.000 266.667 400.000 222.267 C 400.000 197.847,399.934 177.867,399.853 177.867 C 399.773 177.867,399.323 178.077,398.853 178.333 C 398.046 178.775,392.492 178.807,295.951 178.933 L 193.902 179.067 193.079 179.855 C 192.456 180.451,192.059 181.297,191.450 183.322 C 187.486 196.498,181.469 205.555,171.941 212.689 C 143.609 233.900,105.477 220.204,94.847 184.998 C 94.194 182.834,93.457 180.754,93.209 180.376 C 92.212 178.855,94.737 178.934,46.742 178.927 C 3.273 178.922,2.514 178.913,1.371 178.394 C 0.732 178.104,0.162 177.867,0.104 177.867 C 0.047 177.867,0.000 197.847,0.000 222.267 " stroke="none" fill="#fbfbfb" fill-rule="evenodd"></path></g></svg>